<svg id="Component_54_1" data-name="Component 54 – 1" xmlns="http://www.w3.org/2000/svg" width="1303.41" height="263.92" viewBox="0 0 1303.41 263.92">
  <path id="Path_88" data-name="Path 88" d="M63.135-80.5,51.4-27.37h-2.07L37.6-80.5H2.875L28.175,0H72.45l25.3-80.5ZM176.525,0h34.04L183.08-80.5H137.77L110.4,0h33.925l3.565-12.765h25.185Zm-22.08-36.8,4.37-16.33h3.22L166.52-36.8Zm-10.12-76.935A14.38,14.38,0,0,0,129.95-99.36a14.38,14.38,0,0,0,14.375,14.375A14.38,14.38,0,0,0,158.7-99.36,14.38,14.38,0,0,0,144.325-113.735Zm32.315,0A14.38,14.38,0,0,0,162.265-99.36,14.38,14.38,0,0,0,176.64-84.985,14.38,14.38,0,0,0,191.015-99.36,14.38,14.38,0,0,0,176.64-113.735ZM263.12-27.37V-80.5h-30.7V0H308.89V-27.37ZM342.585-80.5v27.37H370.53v19.435c0,4.945-2.415,7.245-6.325,7.245-3.45,0-6.21-2.53-6.21-7.245v-9.66h-30.7V-32.2c0,20.585,12.19,34.385,36.915,34.385,27.6,0,37.03-11.96,37.03-38.065V-80.5ZM539.81-59c-.69-21.045-21.85-23.69-34.615-23.69-16.1,0-33.235,7.59-33.235,28.52h27.83c0-4.6,1.15-6.785,4.83-6.785,2.76,0,4.255,1.38,4.255,4.255-.115,7.82-12.65,8.97-20.125,12.88-8.165,4.37-17.94,11.04-17.94,28.06V0h69V-23H502.2C504.965-32.315,540.845-25.415,539.81-59ZM650.9,2.07c20.7,0,39.215-4.945,39.215-27.945,0-19.665-19.665-21.85-27.37-23.575-7.7-1.84-20.7-3.1-20.7-7.705,0-3.1,3.22-4.37,8.165-4.37,4.83,0,9.085,2.3,9.085,6.44H687.7c0-21.16-20.815-27.6-37.375-27.6-13.11,0-39.445,1.265-39.445,27.715,0,13.34,8.28,18.745,27.255,24.035,8.97,2.415,18.515,3.22,18.515,6.9,0,2.645-2.645,4.025-8.51,4.025-5.175,0-11.385-1.725-11.385-7.245h-28.98C607.775-14.145,620.54,2.07,650.9,2.07ZM757.85-80.5H712.54V0h30.59V-18.17h14.72c23.46,0,34.845-11.385,34.845-31.165S781.31-80.5,757.85-80.5Zm-4.025,37.145h-10.7v-11.96h10.7c5.865,0,8.855.69,8.855,5.98S759.69-43.355,753.825-43.355Zm134.435-13V-80.5H815.12V0h73.14V-24.035H845.71v-5.29h39.215v-21.85H845.71V-56.35Zm53.705,28.98V-80.5H911.26V0h76.475V-27.37ZM1069.385,0h34.04L1075.94-80.5h-45.31L1003.26,0h33.925l3.565-12.765h25.185Zm-22.08-36.8,4.37-16.33h3.22l4.485,16.33ZM1179.555,0h32.89l-14.95-27.715c6.785-4.83,10.12-12.535,10.12-23.23,0-19.78-11.385-29.555-34.845-29.555h-47.495V0h30.7V-21.505H1169.2ZM1155.98-57.5H1169.9c5.06,0,7.7,1.15,7.7,6.555,0,5.29-2.645,6.44-7.7,6.44H1155.98Zm150.3,1.15V-80.5h-73.14V0h73.14V-24.035h-42.55v-5.29h39.215v-21.85h-39.215V-56.35Z" transform="translate(-2.875 113.735)" fill="#f0f0f0"/>
  <path id="Path_87" data-name="Path 87" d="M69.69-80.5,55.775-27.37H51.4L37.49-80.5H2.875L30.36,0H76.82l27.485-80.5ZM182.275-53.13V-80.5h-56.12v27.37H138.92v25.76H126.155V0h56.12V-27.37H169.51V-53.13Zm86.94-27.37v40.02h-1.84L243.685-80.5h-37.26V0H237.13V-41.055h1.84L263.81,0h36.11V-80.5Zm117.645,0v40.02h-1.84L361.33-80.5H324.07V0h30.705V-41.055h1.84L381.455,0h36.11V-80.5ZM538.315-49.68a39.209,39.209,0,0,0-19.55.805h-.8l.46-8.625h29.21v-23h-55.2l-2.185,47.84h23.92c7.13,0,8.625,1.955,8.625,6.555,0,4.37-1.38,6.555-4.255,6.555-3.68,0-4.83-2.53-4.83-7.13H485.99c0,20.93,17.02,28.865,33.12,28.865,16.445,0,32.085-5.52,34.73-26.91C555.335-36.915,549.24-47.035,538.315-49.68Zm70.265-33c-21.5,0-34.96,15.64-34.96,42.435S587.075,2.185,608.58,2.185c21.62,0,34.96-15.64,34.96-42.435S630.2-82.685,608.58-82.685Zm0,60.145c-5.865,0-8.28-6.785-8.28-17.71s2.415-17.71,8.28-17.71c5.98,0,8.28,6.785,8.28,17.71S614.56-22.54,608.58-22.54ZM699.2-82.685c-21.5,0-34.96,15.64-34.96,42.435S677.7,2.185,699.2,2.185c21.62,0,34.96-15.64,34.96-42.435S720.82-82.685,699.2-82.685Zm0,60.145c-5.865,0-8.28-6.785-8.28-17.71s2.415-17.71,8.28-17.71c5.98,0,8.28,6.785,8.28,17.71S705.18-22.54,699.2-22.54ZM859.05,0h33.925L870.32-41.4l19.435-39.1h-32.89L845.02-53.935H833.29V-80.5H802.585V0H833.29V-26.565h11.96ZM969.105,0h32.89l-14.95-27.715c6.785-4.83,10.12-12.535,10.12-23.23,0-19.78-11.385-29.555-34.845-29.555H914.825V0H945.53V-21.505h13.225ZM945.53-57.5h13.915c5.06,0,7.705,1.15,7.705,6.555,0,5.29-2.645,6.44-7.705,6.44H945.53Z" transform="translate(-2.875 261.735)" fill="#f0f0f0"/>
  <path id="Path_86" data-name="Path 86" d="M73.6-59c-.69-21.045-21.85-23.69-34.615-23.69-16.1,0-33.235,7.59-33.235,28.52H33.58c0-4.6,1.15-6.785,4.83-6.785,2.76,0,4.255,1.38,4.255,4.255-.115,7.82-12.65,8.97-20.125,12.88C14.375-39.445,4.6-32.775,4.6-15.755V0h69V-23h-37.6C38.755-32.315,74.635-25.415,73.6-59Z" transform="translate(463.125 113.735)" fill="red"/>
</svg>
