<svg id="Component_43_1" data-name="Component 43 – 1" xmlns="http://www.w3.org/2000/svg" width="683.33" height="84.755" viewBox="0 0 683.33 84.755">
  <path id="Path_73" data-name="Path 73" d="M77.28-54.165V-80.5H5.175V0h30.59V-23.805H70.61v-23H35.765v-7.36ZM150.3,0h34.04L156.86-80.5H111.55L84.18,0H118.1l3.565-12.765h25.185Zm-22.08-36.8,4.37-16.33h3.22L140.3-36.8Zm133.86-43.7v40.02h-1.84L236.555-80.5h-37.26V0H230V-41.055h1.84L256.68,0h36.11V-80.5Zm130.065,0H308.315v27.37H334.88V0h30.7V-53.13H392.15ZM464.6,0h34.04L471.155-80.5h-45.31L398.475,0H432.4l3.565-12.765H461.15ZM442.52-36.8l4.37-16.33h3.22L454.6-36.8ZM551.54,2.07c20.7,0,39.215-4.945,39.215-27.945,0-19.665-19.665-21.85-27.37-23.575-7.705-1.84-20.7-3.1-20.7-7.705,0-3.1,3.22-4.37,8.165-4.37,4.83,0,9.085,2.3,9.085,6.44h28.4c0-21.16-20.815-27.6-37.375-27.6-13.11,0-39.445,1.265-39.445,27.715,0,13.34,8.28,18.745,27.255,24.035,8.97,2.415,18.515,3.22,18.515,6.9,0,2.645-2.645,4.025-8.51,4.025-5.175,0-11.385-1.725-11.385-7.245h-28.98C508.415-14.145,521.18,2.07,551.54,2.07ZM688.505-80.5h-32.89l-10.12,28.98h-3.1L632.27-80.5H599.38l29.21,57.96V0h30.7V-22.54Z" transform="translate(-5.175 82.685)" fill="#292929"/>
</svg>
