<svg id="Component_39_1" data-name="Component 39 – 1" xmlns="http://www.w3.org/2000/svg" width="641.93" height="84.755" viewBox="0 0 641.93 84.755">
  <path id="Path_69" data-name="Path 69" d="M77.28-54.165V-80.5H5.175V0h30.59V-23.805H70.61v-23H35.765v-7.36ZM143.4,0h34.04L149.96-80.5H104.65L77.28,0h33.925l3.565-12.765h25.185Zm-22.08-36.8,4.37-16.33h3.22L133.4-36.8Zm126.96-43.7v40.02h-1.84L222.755-80.5H185.5V0H216.2V-41.055h1.84L242.88,0h36.11V-80.5Zm123.165,0H287.615v27.37H314.18V0h30.7V-53.13H371.45ZM437,0h34.04L443.555-80.5h-45.31L370.875,0H404.8l3.565-12.765H433.55ZM414.92-36.8l4.37-16.33h3.22l4.485,16.33ZM517.04,2.07c20.7,0,39.215-4.945,39.215-27.945,0-19.665-19.665-21.85-27.37-23.575-7.705-1.84-20.7-3.1-20.7-7.705,0-3.1,3.22-4.37,8.165-4.37,4.83,0,9.085,2.3,9.085,6.44h28.4c0-21.16-20.815-27.6-37.375-27.6-13.11,0-39.445,1.265-39.445,27.715,0,13.34,8.28,18.745,27.255,24.035,8.97,2.415,18.515,3.22,18.515,6.9,0,2.645-2.645,4.025-8.51,4.025-5.175,0-11.385-1.725-11.385-7.245h-28.98C473.915-14.145,486.68,2.07,517.04,2.07ZM647.1-80.5h-32.89l-10.12,28.98h-3.1L590.87-80.5H557.98l29.21,57.96V0h30.7V-22.54Z" transform="translate(-5.175 82.685)" fill="#292929"/>
</svg>
