<svg id="Component_20_1" data-name="Component 20 – 1" xmlns="http://www.w3.org/2000/svg" width="100%" height="100%" viewBox="0 0 1419.488 150.486">
  <path id="Path_52" data-name="Path 52" d="M69,0h34.04L75.555-80.5H30.245L2.875,0H36.8l3.565-12.765H65.55ZM46.92-36.8l4.37-16.33h3.22L59-36.8ZM173.88-80.5v40.02h-1.84L148.35-80.5H111.09V0h30.7V-41.055h1.84L168.475,0h36.11V-80.5Zm123.165,0H213.21v27.37h26.565V0h30.7V-53.13h26.565ZM362.6,0h34.04L369.15-80.5H323.84L296.47,0h33.925l3.565-12.765h25.185Zm-22.08-36.8,4.37-16.33h3.22L352.59-36.8ZM442.635,2.07c20.7,0,39.215-4.945,39.215-27.945,0-19.665-19.665-21.85-27.37-23.575-7.705-1.84-20.7-3.1-20.7-7.705,0-3.1,3.22-4.37,8.165-4.37,4.83,0,9.085,2.3,9.085,6.44h28.4c0-21.16-20.815-27.6-37.375-27.6-13.11,0-39.445,1.265-39.445,27.715,0,13.34,8.28,18.745,27.255,24.035,8.97,2.415,18.515,3.22,18.515,6.9,0,2.645-2.645,4.025-8.51,4.025-5.175,0-11.385-1.725-11.385-7.245H399.51C399.51-14.145,412.275,2.07,442.635,2.07ZM572.7-80.5H539.81L529.69-51.52h-3.1L516.465-80.5h-32.89l29.21,57.96V0h30.7V-22.54ZM685.055-54.165V-80.5H612.95V0h30.59V-23.805h34.845v-23H643.54v-7.36Zm55.085-28.52c-29.1,0-48.76,13.685-48.76,42.435,0,28.635,19.665,42.435,48.76,42.435s48.76-13.8,48.76-42.435C788.9-69,769.235-82.685,740.14-82.685Zm0,56c-9.66,0-15.41-5.29-15.41-13.57s5.75-13.685,15.41-13.685,15.41,5.405,15.41,13.685S749.8-26.68,740.14-26.68Zm104.42-56c-29.1,0-48.76,13.685-48.76,42.435,0,28.635,19.665,42.435,48.76,42.435s48.76-13.8,48.76-42.435C893.32-69,873.655-82.685,844.56-82.685Zm0,56c-9.66,0-15.41-5.29-15.41-13.57s5.75-13.685,15.41-13.685,15.41,5.405,15.41,13.685S854.22-26.68,844.56-26.68ZM982.905-80.5H899.07v27.37h26.565V0h30.7V-53.13h26.565Zm75.9,39.1v-.805c6.555-.805,12.42-7.935,12.42-17.71,0-14.835-8.74-20.585-27.255-20.585H991.53V0h54.625c18.285,0,27.025-7.245,27.025-21.965C1073.18-31.74,1067.43-39.9,1058.8-41.4ZM1020.05-60.835h14.375c3.91,0,7.015.69,7.015,4.715s-3.1,4.6-7.015,4.6H1020.05Zm15.41,40.25h-15.87v-11.04h15.87c4.37,0,7.82.92,7.82,5.52C1043.28-21.39,1039.83-20.585,1035.46-20.585ZM1142.18,0h34.04l-27.485-80.5h-45.31L1076.055,0h33.925l3.565-12.765h25.185ZM1120.1-36.8l4.37-16.33h3.22l4.485,16.33Zm94.875,9.43V-80.5h-30.7V0h76.475V-27.37Zm85.1,0V-80.5h-30.7V0h76.475V-27.37Z" transform="translate(73.643 148.301)" fill="#f0f0f0"/>
  <g id="Group_9" data-name="Group 9" transform="translate(-105.357 -30.699)">
    <g id="Group_4" data-name="Group 4" transform="translate(105.357 30.699)">
      <path id="Path_3" data-name="Path 3" d="M156.857,51.35,142.026,35.2,127.2,51.35l-18.308-9.041,2.78,29.9h60.711l2.784-29.9Z" transform="translate(-105.357 -30.699)" fill="#67ffbf"/>
      <path id="Path_4" data-name="Path 4" d="M159.1,49.294,144.266,33.139l-2.241-2.44-2.239,2.44-14.83,16.155,3.587-.671-18.307-9.041-4.879-2.408.5,5.417,2.78,29.9.257,2.76h66.254l.257-2.76,2.784-29.894.505-5.419-4.88,2.409-18.306,9.041Zm13.039-7.266-2.784,29.894,3.028-2.759H111.669l3.029,2.76-2.781-29.895-4.375,3.008,18.308,9.041,2.045,1.01,1.542-1.68,14.829-16.155h-4.48l14.831,16.155,1.543,1.68,2.044-1.01,18.308-9.041Z" transform="translate(-105.357 -30.699)" fill="#67ffbf"/>
    </g>
  </g>
  <path id="Path_53" data-name="Path 53" d="M74.88-56.52V-84H5.4V0H37.32V-26.04H68.04v-24H37.32v-6.48Z" transform="translate(-2.357 150.301)" fill="#f0f0f0"/>
</svg>
