<svg id="Component_3_1" data-name="Component 3 – 1" xmlns="http://www.w3.org/2000/svg" width="754.65" height="171.6" viewBox="0 0 754.65 171.6">
  <path id="Path_11" data-name="Path 11" d="M45.45-52.5,36.375-17.85h-2.85L24.45-52.5H1.875L19.8,0H50.1L68.025-52.5ZM111.9,0h22.2L116.175-52.5H86.625L68.775,0H90.9l2.325-8.325H109.65ZM97.5-24l2.85-10.65h2.1L105.375-24ZM90.9-74.175A9.378,9.378,0,0,0,81.525-64.8,9.378,9.378,0,0,0,90.9-55.425a9.378,9.378,0,0,0,9.375-9.375A9.378,9.378,0,0,0,90.9-74.175Zm21.075,0A9.378,9.378,0,0,0,102.6-64.8a9.378,9.378,0,0,0,9.375,9.375A9.378,9.378,0,0,0,121.35-64.8,9.378,9.378,0,0,0,111.975-74.175Zm48.9,56.325V-52.5H140.85V0h49.875V-17.85ZM205.2-52.5v17.85h18.225v12.675c0,3.225-1.575,4.725-4.125,4.725-2.25,0-4.05-1.65-4.05-4.725v-6.3H195.225V-21c0,13.425,7.95,22.425,24.075,22.425,18,0,24.15-7.8,24.15-24.825V-52.5Zm102,20.1a25.571,25.571,0,0,0-12.75.525h-.525l.3-5.625h19.05v-15h-36L275.85-21.3h15.6c4.65,0,5.625,1.275,5.625,4.275,0,2.85-.9,4.275-2.775,4.275-2.4,0-3.15-1.65-3.15-4.65H273.075c0,13.65,11.1,18.825,21.6,18.825,10.725,0,20.925-3.6,22.65-17.55C318.3-24.075,314.325-30.675,307.2-32.4ZM374.1,1.35c13.5,0,25.575-3.225,25.575-18.225,0-12.825-12.825-14.25-17.85-15.375-5.025-1.2-13.5-2.025-13.5-5.025,0-2.025,2.1-2.85,5.325-2.85,3.15,0,5.925,1.5,5.925,4.2H398.1c0-13.8-13.575-18-24.375-18-8.55,0-25.725.825-25.725,18.075,0,8.7,5.4,12.225,17.775,15.675,5.85,1.575,12.075,2.1,12.075,4.5,0,1.725-1.725,2.625-5.55,2.625-3.375,0-7.425-1.125-7.425-4.725h-18.9C345.975-9.225,354.3,1.35,374.1,1.35ZM436.35-52.5H406.8V0h19.95V-11.85h9.6c15.3,0,22.725-7.425,22.725-20.325S451.65-52.5,436.35-52.5Zm-2.625,24.225H426.75v-7.8h6.975c3.825,0,5.775.45,5.775,3.9S437.55-28.275,433.725-28.275ZM513.9-36.75V-52.5H466.2V0h47.7V-15.675H486.15v-3.45h25.575v-14.25H486.15V-36.75Zm27.525,18.9V-52.5H521.4V0h49.875V-17.85ZM617.025,0h22.2L621.3-52.5H591.75L573.9,0h22.125l2.325-8.325h16.425Zm-14.4-24,2.85-10.65h2.1L610.5-24Zm78.75,24h21.45l-9.75-18.075c4.425-3.15,6.6-8.175,6.6-15.15,0-12.9-7.425-19.275-22.725-19.275H645.975V0H666V-14.025h8.625ZM666-37.5h9.075c3.3,0,5.025.75,5.025,4.275,0,3.45-1.725,4.2-5.025,4.2H666Zm90.525.75V-52.5h-47.7V0h47.7V-15.675h-27.75v-3.45H754.35v-14.25H728.775V-36.75Z" transform="translate(-1.875 74.175)" fill="#292929"/>
  <path id="Path_12" data-name="Path 12" d="M41.175-52.5l-7.65,34.65h-1.35L24.525-52.5H1.875L18.375,0H47.25l16.5-52.5ZM107.1-34.65V-52.5H70.5v17.85h8.325v16.8H70.5V0h36.6V-17.85H98.775v-16.8ZM156.3-52.5v26.1h-1.2L139.65-52.5h-24.3V0h20.025V-26.775h1.2L152.775,0h23.55V-52.5Zm69.225,0v26.1h-1.2l-15.45-26.1h-24.3V0H204.6V-26.775h1.2L222,0h23.55V-52.5ZM309.3-32.4a25.571,25.571,0,0,0-12.75.525h-.525l.3-5.625h19.05v-15h-36L277.95-21.3h15.6c4.65,0,5.625,1.275,5.625,4.275,0,2.85-.9,4.275-2.775,4.275-2.4,0-3.15-1.65-3.15-4.65H275.175c0,13.65,11.1,18.825,21.6,18.825,10.725,0,20.925-3.6,22.65-17.55C320.4-24.075,316.425-30.675,309.3-32.4Zm38.325-21.525c-14.025,0-22.8,10.2-22.8,27.675s8.775,27.675,22.8,27.675c14.1,0,22.8-10.2,22.8-27.675S361.725-53.925,347.625-53.925Zm0,39.225c-3.825,0-5.4-4.425-5.4-11.55s1.575-11.55,5.4-11.55c3.9,0,5.4,4.425,5.4,11.55S351.525-14.7,347.625-14.7Zm51.6-39.225c-14.025,0-22.8,10.2-22.8,27.675s8.775,27.675,22.8,27.675c14.1,0,22.8-10.2,22.8-27.675S413.325-53.925,399.225-53.925Zm0,39.225c-3.825,0-5.4-4.425-5.4-11.55s1.575-11.55,5.4-11.55c3.9,0,5.4,4.425,5.4,11.55S403.125-14.7,399.225-14.7ZM488.475,0H510.6L495.825-27,508.5-52.5H487.05l-7.725,17.325h-7.65V-52.5H451.65V0h20.025V-17.325h7.8ZM552.75,0H574.2l-9.75-18.075c4.425-3.15,6.6-8.175,6.6-15.15,0-12.9-7.425-19.275-22.725-19.275H517.35V0h20.025V-14.025H546ZM537.375-37.5h9.075c3.3,0,5.025.75,5.025,4.275,0,3.45-1.725,4.2-5.025,4.2h-9.075Z" transform="translate(-1.875 170.175)" fill="#292929"/>
</svg>
