<svg id="Component_31_1" data-name="Component 31 – 1" xmlns="http://www.w3.org/2000/svg" width="728.985" height="84.87" viewBox="0 0 728.985 84.87">
  <path id="Path_61" data-name="Path 61" d="M71.76-54.165V-80.5H5.175V0h30.59V-24.955H65.2v-23H35.765v-6.21ZM136.505-80.5v41.4c0,9.085-5.175,12.65-12.42,12.65s-12.42-3.565-12.42-12.65V-80.5H80.96v41.4c0,27.255,14.6,41.285,43.125,41.285,28.4,0,43.01-14.03,43.01-41.285V-80.5ZM208.15-27.37V-80.5H177.445V0H253.92V-27.37Zm85.1,0V-80.5H262.545V0H339.02V-27.37Zm127.3-53.13H336.72v27.37h26.565V0h30.7V-53.13h26.565Zm71.53,53.13V-80.5H461.38V0h76.475V-27.37ZM605.705,0h34.04L612.26-80.5H566.95L539.58,0h33.925l3.565-12.765h25.185Zm-22.08-36.8,4.37-16.33h3.22L595.7-36.8ZM693.45-28.4h6.095v.69c-2.415,1.84-5.75,3.1-10.7,3.1-8.97,0-15.065-6.555-15.065-15.64,0-7.7,6.1-13.57,15.065-13.57,6.67,0,11.96,3.68,13.455,8.05H734.16c-1.495-21.275-22.08-36.915-46.23-36.915-30.59,0-47.61,17.71-47.61,42.435,0,24.61,17.02,42.435,47.61,42.435a51.633,51.633,0,0,0,26.45-7.13V0h19.78V-43.01H693.45Z" transform="translate(-5.175 82.685)" fill="#292929"/>
</svg>
