<svg id="Component_16_4" data-name="Component 16 – 4" xmlns="http://www.w3.org/2000/svg" width="400" height="435" viewBox="0 0 400 435">
  <g id="Group_5" data-name="Group 5">
    <g id="Group_3" data-name="Group 3" transform="translate(0 47.938)">
      <g id="Group_1" data-name="Group 1" transform="translate(200.001)">
        <path id="Path_1" data-name="Path 1" d="M264.058,104.129c7,1.48,20.871,4.347,28.4,4.943a72.848,72.848,0,0,0-1.3,13.325c.086,5.566,1.492,8.227,3.331,9.418a7.649,7.649,0,0,0,.833.4c6.245,1.95,10.742-7.017,11.608-8.864-4.012,2.346-11.024,4.42-10.684-10.387a100.043,100.043,0,0,1,1.931-15.934c-7.812-.46-22.156-3.4-29.4-4.933-24.054-5.081-30.532-26.738-33.3-38.483l-7.25,26.622C231.5,89.426,240.751,99.205,264.058,104.129ZM302.01,350.391a220.642,220.642,0,0,1,29.761-42.072,179.345,179.345,0,0,1-28.312-25.633c-58.373-67.148,38.567-119.035,38.567-119.035s-32.833-9.247-58.562-19.032l12.124-8.182-28.844,7.689c25.416,10.321,57.738,20.236,57.738,20.236S226.093,214.072,282.521,282.5A177.93,177.93,0,0,0,310.1,308.755c-21.565,23.025-36.786,47.442-44.19,70.867-.068.171-.123.33-.19.5-2.352,6.471-3.179,11.127-2.877,14.337a157.736,157.736,0,0,1-40.187-7.716,321.4,321.4,0,0,1-43.068-17.585,178.635,178.635,0,0,1-37.557,30.71v40.809c15.933-13.836,30.448-31.328,42.658-51.593,4.885,2.082,9.827,3.96,14.776,5.7,15.2,5.071,42.431,12.007,65.266,6.178,27.177-6.936,61.172-34.7,61.172-34.7s-33.506,3.616-24.005-15.429Z" transform="translate(-142.026 -53.614)" fill="#969696"/>
      </g>
      <g id="Group_2" data-name="Group 2">
        <path id="Path_2" data-name="Path 2" d="M165.094,80.236l-7.248-26.622c-2.775,11.744-9.256,33.4-33.3,38.483-7.241,1.53-21.591,4.473-29.4,4.933a100.382,100.382,0,0,1,1.94,15.934c.333,14.807-6.679,12.733-10.693,10.387.873,1.847,5.37,10.814,11.615,8.864a7.134,7.134,0,0,0,.824-.4c1.841-1.191,3.249-3.851,3.333-9.418a72.084,72.084,0,0,0-1.3-13.325c7.53-.6,21.408-3.463,28.407-4.943C152.569,99.205,161.827,89.426,165.094,80.236Zm-73.664,270.6c9.5,19.045-24.01,15.429-24.01,15.429s34,27.764,61.175,34.7c22.837,5.829,50.071-1.107,65.272-6.178,4.942-1.742,9.884-3.62,14.776-5.7,12.21,20.265,26.725,37.756,42.654,51.593V399.867a178.593,178.593,0,0,1-37.56-30.71,321.579,321.579,0,0,1-43.064,17.585,157.763,157.763,0,0,1-40.194,7.716c.3-3.21-.522-7.866-2.872-14.337-.06-.169-.126-.328-.19-.5-7.4-23.425-22.621-47.842-44.192-70.867A178,178,0,0,0,110.808,282.5c56.426-68.431-41.959-118.142-41.959-118.142s32.315-9.915,57.736-20.236l-28.852-7.689,12.126,8.182c-25.722,9.785-58.562,19.032-58.562,19.032s96.946,51.888,38.574,119.035a179.031,179.031,0,0,1-28.321,25.633,220.8,220.8,0,0,1,29.769,42.072Z" transform="translate(-51.295 -53.614)" fill="#969696"/>
      </g>
    </g>
    <g id="Group_4" data-name="Group 4" transform="translate(119.171)">
      <path id="Path_3" data-name="Path 3" d="M214.627,68.99,181.933,35.2,149.245,68.99,108.889,50.076l6.128,62.54H248.846l6.137-62.54Z" transform="translate(-101.103 -25.788)" fill="#ff5252"/>
      <path id="Path_4" data-name="Path 4" d="M223.82,69.6,191.125,35.8l-4.94-5.1-4.935,5.1L148.56,69.6l7.907-1.4L116.112,49.282l-10.755-5.038,1.111,11.332,6.128,62.54.567,5.774H259.208l.567-5.774,6.137-62.538,1.113-11.336-10.757,5.04L215.915,68.2Zm28.742-15.2-6.137,62.538,6.675-5.772H119.271l6.677,5.774-6.13-62.54-9.644,6.293L150.53,79.605l4.508,2.113,3.4-3.515,32.688-33.8H181.25l32.692,33.8,3.4,3.515,4.506-2.113,40.357-18.914Z" transform="translate(-105.357 -30.699)" fill="#ff5252"/>
    </g>
  </g>
  <path id="Path_43" data-name="Path 43" d="M97.5,98.986c47.878,0,85.175-11.046,85.175-61.253,0-42.928-45.233-47.446-62.956-51.463s-37.3-7.782-37.3-16.569c0-6.778,5.29-9.539,13.491-9.539,8.729,0,15.871,4.77,15.871,13.807h65.336c0-46.191-42.852-60.249-80.943-60.249-30.155,0-85.44,2.761-85.44,60.751,0,28.869,19.045,40.668,62.691,52.216C94.066,32.21,105.7,33.716,105.7,42c0,5.523-4.761,8.535-14.549,8.535-9.258,0-20.9-3.766-20.9-15.564H3.6C3.6,63.339,27.936,98.986,97.5,98.986Z" transform="translate(107.289 220.211)" fill="#292929"/>
</svg>
