<svg id="Component_50_2" data-name="Component 50 – 2" xmlns="http://www.w3.org/2000/svg" width="2000" height="2000" viewBox="0 0 2000 2000">
  <path id="Path_81" data-name="Path 81" d="M0,0H2000V2000H0Z" fill="#67ffbf"/>
  <g id="Group_10" data-name="Group 10" transform="translate(274.359 168.645)">
    <g id="Group_3" data-name="Group 3" transform="translate(0 183.32)" opacity="0.997">
      <g id="Group_1" data-name="Group 1" transform="translate(725.848)">
        <path id="Path_1" data-name="Path 1" d="M584.906,246.788c25.4,5.66,75.744,16.622,103.072,18.9a293.1,293.1,0,0,0-4.7,50.958c.312,21.286,5.416,31.462,12.088,36.014a27.21,27.21,0,0,0,3.024,1.53c22.664,7.457,38.984-26.834,42.128-33.9-14.56,8.972-40.008,16.9-38.776-39.721.56-18.442,2.848-38.436,7.008-60.933-28.352-1.76-80.408-13.012-106.688-18.865C514.762,181.347,491.25,98.526,481.2,53.614l-26.312,101.8C466.746,190.564,500.322,227.96,584.906,246.788Zm137.736,941.737c27.44-54.04,63.64-108.259,108.008-160.888-38.608-30.34-73.84-62.916-102.752-98.024-211.848-256.78,139.968-455.2,139.968-455.2S748.706,439.048,655.33,401.63l44-31.291-104.68,29.4c92.24,39.468,209.544,77.384,209.544,77.384s-357.072,190.1-152.28,451.788c27.944,35.762,62.3,69.132,100.072,100.386-78.264,88.049-133.5,181.424-160.376,271-.248.654-.448,1.263-.688,1.909-8.536,24.747-11.536,42.55-10.44,54.828-42.744-2.191-90.944-11.1-145.848-29.508-52.5-17.625-104.96-40.835-156.3-67.246a656.521,656.521,0,0,1-136.3,117.439v156.06c57.824-52.911,110.5-119.8,154.816-197.3,17.728,7.962,35.664,15.144,53.624,21.806,55.168,19.392,153.992,45.915,236.864,23.626,98.632-26.522,222.008-132.694,222.008-132.694s-121.6,13.829-87.12-59Z" transform="translate(-142.026 -53.614)" fill="#2f2f2f"/>
      </g>
      <g id="Group_2" data-name="Group 2">
        <path id="Path_2" data-name="Path 2" d="M464.295,155.418l-26.3-101.8C427.919,98.526,404.4,181.347,317.127,200.776c-26.28,5.853-78.36,17.1-106.712,18.865,4.16,22.5,6.472,42.491,7.04,60.933,1.208,56.625-24.24,48.693-38.808,39.721,3.168,7.063,19.488,41.355,42.152,33.9a25.369,25.369,0,0,0,2.992-1.53c6.68-4.553,11.792-14.728,12.1-36.014a290.016,290.016,0,0,0-4.7-50.958c27.328-2.28,77.7-13.243,103.1-18.9C418.839,227.96,452.439,190.564,464.295,155.418ZM196.951,1190.226c34.472,72.831-87.136,59-87.136,59S233.207,1355.4,331.831,1381.921c82.88,22.289,181.72-4.233,236.888-23.626,17.936-6.662,35.872-13.844,53.624-21.806,44.312,77.5,96.992,144.385,154.8,197.3v-156.06a656.36,656.36,0,0,1-136.312-117.439c-51.344,26.411-103.808,49.621-156.288,67.246-54.9,18.412-103.128,27.317-145.872,29.508,1.1-12.277-1.9-30.08-10.424-54.828-.216-.646-.456-1.255-.688-1.909-26.856-89.579-82.1-182.954-160.384-271,37.8-31.254,72.136-64.624,100.1-100.386C472.063,667.226,115,477.127,115,477.127s117.28-37.916,209.536-77.384l-104.712-29.4,44.008,31.291c-93.352,37.418-212.536,72.779-212.536,72.779s351.84,198.425,139.992,455.2C162.375,964.722,127.143,997.3,88.5,1027.637c44.384,52.629,80.576,106.848,108.04,160.888Z" transform="translate(-51.295 -53.614)" fill="#2f2f2f"/>
      </g>
    </g>
    <g id="Group_4" data-name="Group 4" transform="translate(432.496)">
      <path id="Path_3" data-name="Path 3" d="M492.635,164.427,373.983,35.2,255.35,164.427,108.889,92.1l22.242,239.161H616.823L639.1,92.1Z" transform="translate(-80.632 0.781)" fill="#2f2f2f"/>
      <path id="Path_4" data-name="Path 4" d="M535.285,179.459,416.629,50.219,398.7,30.7l-17.912,19.52-118.64,129.24,28.7-5.368L144.389,101.763,105.357,82.5l4.032,43.336,22.24,239.16,2.056,22.08H663.717l2.056-22.08,22.272-239.152,4.04-43.352-39.04,19.272L506.6,174.091ZM639.6,121.331,617.325,360.483l24.224-22.072h-485.7l24.232,22.08-22.248-239.16-35,24.064L269.3,217.723l16.36,8.08L298,212.363,416.629,83.123h-35.84l118.648,129.24,12.344,13.44,16.352-8.08L674.6,145.4Z" transform="translate(-105.357 -30.699)" fill="none"/>
    </g>
  </g>
  <path id="Path_78" data-name="Path 78" d="M344.4,622.2c173.76,0,309.12-42.24,309.12-234.24,0-164.16-164.16-181.44-228.48-196.8S289.68,161.4,289.68,127.8c0-25.92,19.2-36.48,48.96-36.48,31.68,0,57.6,18.24,57.6,52.8H633.36c0-176.64-155.52-230.4-293.76-230.4-109.44,0-310.08,10.56-310.08,232.32,0,110.4,69.12,155.52,227.52,199.68,74.88,21.12,117.12,26.88,117.12,58.56,0,21.12-17.28,32.64-52.8,32.64-33.6,0-75.84-14.4-75.84-59.52H3.6C3.6,485.88,91.92,622.2,344.4,622.2Z" transform="translate(673.2 735.093)" fill="#2f2f2f"/>
  <g id="Group_12" data-name="Group 12" transform="translate(274.359 168.645)">
    <g id="Group_3-2" data-name="Group 3" transform="translate(0 183.32)" opacity="0.997">
      <g id="Group_1-2" data-name="Group 1" transform="translate(725.848)">
        <path id="Path_1-2" data-name="Path 1" d="M584.906,246.788c25.4,5.66,75.744,16.622,103.072,18.9a293.1,293.1,0,0,0-4.7,50.958c.312,21.286,5.416,31.462,12.088,36.014a27.21,27.21,0,0,0,3.024,1.53c22.664,7.457,38.984-26.834,42.128-33.9-14.56,8.972-40.008,16.9-38.776-39.721.56-18.442,2.848-38.436,7.008-60.933-28.352-1.76-80.408-13.012-106.688-18.865C514.762,181.347,491.25,98.526,481.2,53.614l-26.312,101.8C466.746,190.564,500.322,227.96,584.906,246.788Zm137.736,941.737c27.44-54.04,63.64-108.259,108.008-160.888-38.608-30.34-73.84-62.916-102.752-98.024-211.848-256.78,139.968-455.2,139.968-455.2S748.706,439.048,655.33,401.63l44-31.291-104.68,29.4c92.24,39.468,209.544,77.384,209.544,77.384s-357.072,190.1-152.28,451.788c27.944,35.762,62.3,69.132,100.072,100.386-78.264,88.049-133.5,181.424-160.376,271-.248.654-.448,1.263-.688,1.909-8.536,24.747-11.536,42.55-10.44,54.828-42.744-2.191-90.944-11.1-145.848-29.508-52.5-17.625-104.96-40.835-156.3-67.246a656.521,656.521,0,0,1-136.3,117.439v156.06c57.824-52.911,110.5-119.8,154.816-197.3,17.728,7.962,35.664,15.144,53.624,21.806,55.168,19.392,153.992,45.915,236.864,23.626,98.632-26.522,222.008-132.694,222.008-132.694s-121.6,13.829-87.12-59Z" transform="translate(-142.026 -53.614)" fill="#2f2f2f"/>
      </g>
      <g id="Group_2-2" data-name="Group 2">
        <path id="Path_2-2" data-name="Path 2" d="M464.295,155.418l-26.3-101.8C427.919,98.526,404.4,181.347,317.127,200.776c-26.28,5.853-78.36,17.1-106.712,18.865,4.16,22.5,6.472,42.491,7.04,60.933,1.208,56.625-24.24,48.693-38.808,39.721,3.168,7.063,19.488,41.355,42.152,33.9a25.369,25.369,0,0,0,2.992-1.53c6.68-4.553,11.792-14.728,12.1-36.014a290.016,290.016,0,0,0-4.7-50.958c27.328-2.28,77.7-13.243,103.1-18.9C418.839,227.96,452.439,190.564,464.295,155.418ZM196.951,1190.226c34.472,72.831-87.136,59-87.136,59S233.207,1355.4,331.831,1381.921c82.88,22.289,181.72-4.233,236.888-23.626,17.936-6.662,35.872-13.844,53.624-21.806,44.312,77.5,96.992,144.385,154.8,197.3v-156.06a656.36,656.36,0,0,1-136.312-117.439c-51.344,26.411-103.808,49.621-156.288,67.246-54.9,18.412-103.128,27.317-145.872,29.508,1.1-12.277-1.9-30.08-10.424-54.828-.216-.646-.456-1.255-.688-1.909-26.856-89.579-82.1-182.954-160.384-271,37.8-31.254,72.136-64.624,100.1-100.386C472.063,667.226,115,477.127,115,477.127s117.28-37.916,209.536-77.384l-104.712-29.4,44.008,31.291c-93.352,37.418-212.536,72.779-212.536,72.779s351.84,198.425,139.992,455.2C162.375,964.722,127.143,997.3,88.5,1027.637c44.384,52.629,80.576,106.848,108.04,160.888Z" transform="translate(-51.295 -53.614)" fill="#2f2f2f"/>
      </g>
    </g>
    <g id="Group_4-2" data-name="Group 4" transform="translate(432.496)">
      <path id="Path_3-2" data-name="Path 3" d="M492.635,164.427,373.983,35.2,255.35,164.427,108.889,92.1l22.242,239.161H616.823L639.1,92.1Z" transform="translate(-80.632 0.781)" fill="#2f2f2f"/>
      <path id="Path_4-2" data-name="Path 4" d="M535.285,179.459,416.629,50.219,398.7,30.7l-17.912,19.52-118.64,129.24,28.7-5.368L144.389,101.763,105.357,82.5l4.032,43.336,22.24,239.16,2.056,22.08H663.717l2.056-22.08,22.272-239.152,4.04-43.352-39.04,19.272L506.6,174.091ZM639.6,121.331,617.325,360.483l24.224-22.072h-485.7l24.232,22.08-22.248-239.16-35,24.064L269.3,217.723l16.36,8.08L298,212.363,416.629,83.123h-35.84l118.648,129.24,12.344,13.44,16.352-8.08L674.6,145.4Z" transform="translate(-105.357 -30.699)" fill="none"/>
    </g>
  </g>
</svg>
