<svg id="Component_26_2" data-name="Component 26 – 2" xmlns="http://www.w3.org/2000/svg" width="800" height="800" viewBox="0 0 800 800">
  <rect id="Rectangle_2" data-name="Rectangle 2" width="800" height="800" rx="20" fill="none"/>
  <g id="Component_16_2" data-name="Component 16 – 2" transform="translate(100.295 39.699)">
    <g id="Group_5" data-name="Group 5">
      <g id="Group_3" data-name="Group 3" transform="translate(0 79.345)">
        <g id="Group_1" data-name="Group 1" transform="translate(300.002)">
          <path id="Path_1" data-name="Path 1" d="M325.074,137.224c10.5,2.45,31.306,7.194,42.6,8.181a132.68,132.68,0,0,0-1.944,22.056c.129,9.213,2.238,13.617,5,15.588a11.048,11.048,0,0,0,1.25.662c9.367,3.228,16.113-11.615,17.412-14.672-6.018,3.883-16.536,7.317-16.027-17.192a181.975,181.975,0,0,1,2.9-26.373c-11.718-.762-33.234-5.632-44.1-8.165-36.08-8.41-45.8-44.256-49.951-63.7L271.336,97.677C276.237,112.889,290.114,129.075,325.074,137.224ZM382,544.831A367.522,367.522,0,0,1,426.643,475.2c-15.957-13.132-30.519-27.232-42.469-42.427-87.559-111.141,57.85-197.024,57.85-197.024s-49.25-15.3-87.844-31.5L372.366,190.7,329.1,203.427c38.124,17.083,86.607,33.494,86.607,33.494S268.126,319.2,352.769,432.466c11.55,15.479,25.748,29.922,41.361,43.45-32.347,38.11-55.179,78.525-66.285,117.3-.1.283-.185.547-.284.826-3.528,10.711-4.768,18.417-4.315,23.731-17.667-.948-37.588-4.8-60.281-12.772-21.7-7.628-43.381-17.674-64.6-29.106a275.278,275.278,0,0,1-56.336,50.831v67.547c23.9-22.9,45.673-51.853,63.987-85.395,7.327,3.446,14.74,6.555,22.163,9.438,22.8,8.394,63.647,19.873,97.9,10.226,40.766-11.48,91.759-57.433,91.759-57.433s-50.259,5.986-36.008-25.537Z" transform="translate(-142.026 -53.614)" fill="#767676"/>
        </g>
        <g id="Group_2" data-name="Group 2">
          <path id="Path_2" data-name="Path 2" d="M221.993,97.677,211.121,53.614c-4.163,19.439-13.884,55.286-49.955,63.7-10.862,2.533-32.387,7.4-44.105,8.165a182.587,182.587,0,0,1,2.91,26.373c.5,24.509-10.019,21.075-16.04,17.192,1.309,3.057,8.055,17.9,17.422,14.672a10.316,10.316,0,0,0,1.237-.662c2.761-1.971,4.874-6.375,5-15.588a131.287,131.287,0,0,0-1.944-22.056c11.3-.987,32.113-5.732,42.611-8.181C203.205,129.075,217.093,112.889,221.993,97.677ZM111.5,545.568C125.744,577.091,75.482,571.1,75.482,571.1s51,45.954,91.762,57.433c34.255,9.647,75.107-1.832,97.909-10.226,7.413-2.883,14.826-5.992,22.163-9.438,18.315,33.542,40.088,62.493,63.981,85.395V626.722a275.21,275.21,0,0,1-56.339-50.831c-21.221,11.432-42.905,21.477-64.6,29.106-22.689,7.969-42.624,11.823-60.291,12.772.453-5.314-.784-13.019-4.308-23.731-.089-.28-.188-.543-.284-.826-11.1-38.772-33.931-79.187-66.289-117.3,15.623-13.528,29.815-27.971,41.374-43.45C225.2,319.2,77.625,236.921,77.625,236.921s48.473-16.411,86.6-33.494L120.95,190.7l18.189,13.543c-38.583,16.2-87.844,31.5-87.844,31.5s145.42,85.883,57.86,197.024c-11.95,15.2-26.512,29.3-42.482,42.427a367.779,367.779,0,0,1,44.654,69.636Z" transform="translate(-51.295 -53.614)" fill="#767676"/>
        </g>
      </g>
      <g id="Group_4" data-name="Group 4" transform="translate(178.756)">
        <path id="Path_3" data-name="Path 3" d="M267.5,91.131,218.456,35.2,169.423,91.131,108.889,59.825l9.193,103.515H318.824L328.03,59.825Z" transform="translate(-97.21 -19.624)" fill="#67ffbf"/>
        <path id="Path_4" data-name="Path 4" d="M283.051,95.086,234.009,39.148,226.6,30.7l-7.4,8.449L170.161,95.086l11.86-2.323L121.489,61.457l-16.132-8.338,1.666,18.757,9.192,103.514.85,9.557H336.134l.85-9.557L346.189,71.88l1.67-18.764-16.136,8.341L271.194,92.763Zm43.113-25.159-9.205,103.511,10.012-9.553H126.228l10.015,9.557-9.2-103.514L112.582,80.342l60.535,31.305,6.762,3.5,5.1-5.817,49.032-55.938H219.2l49.039,55.938,5.1,5.817,6.758-3.5,60.535-31.305Z" transform="translate(-105.357 -30.699)" fill="#67ffbf"/>
      </g>
    </g>
    <path id="Path_43" data-name="Path 43" d="M144.457,220.368c71.817,0,127.763-18.283,127.763-101.385,0-71.053-67.849-78.532-94.434-85.18S121.84,20.922,121.84,6.379c0-11.219,7.936-15.789,20.236-15.789,13.094,0,23.807,7.895,23.807,22.853h98c0-76.454-64.278-99.723-121.415-99.723-45.233,0-128.16,4.571-128.16,100.554,0,47.784,28.568,67.313,94.037,86.426,30.949,9.141,48.407,11.634,48.407,25.346,0,9.141-7.142,14.127-21.823,14.127-13.887,0-31.346-6.233-31.346-25.762H3.6C3.6,161.365,40.1,220.368,144.457,220.368Z" transform="translate(162.733 307.959)" fill="#f0f0f0"/>
  </g>
</svg>
