<svg id="Component_42_1" data-name="Component 42 – 1" xmlns="http://www.w3.org/2000/svg" width="857.785" height="84.87" viewBox="0 0 857.785 84.87">
  <path id="Path_72" data-name="Path 72" d="M35.88-27.37V-80.5H5.175V0H81.65V-27.37ZM153.295-53.13V-80.5H97.175v27.37H109.94v25.76H97.175V0h56.12V-27.37H140.53V-53.13ZM235.06-80.5,221.145-27.37h-4.37L202.86-80.5H168.245L195.73,0h46.46l27.485-80.5ZM357.765-56.35V-80.5h-73.14V0h73.14V-24.035h-42.55v-5.29H354.43v-21.85H315.215V-56.35Zm57.5,58.42c20.7,0,39.215-4.945,39.215-27.945,0-19.665-19.665-21.85-27.37-23.575-7.705-1.84-20.7-3.1-20.7-7.705,0-3.1,3.22-4.37,8.165-4.37,4.83,0,9.085,2.3,9.085,6.44h28.4c0-21.16-20.815-27.6-37.375-27.6-13.11,0-39.445,1.265-39.445,27.715,0,13.34,8.28,18.745,27.255,24.035,8.97,2.415,18.515,3.22,18.515,6.9,0,2.645-2.645,4.025-8.51,4.025-5.175,0-11.385-1.725-11.385-7.245H372.14C372.14-14.145,384.9,2.07,415.265,2.07ZM516.7-26.8c-8.97,0-15.065-5.865-15.065-13.455,0-7.7,6.1-13.57,15.065-13.57,6.67,0,11.96,3.68,13.455,8.05h31.855c-1.495-21.275-22.08-36.915-46.23-36.915-30.59,0-47.495,17.71-47.495,42.435,0,24.61,16.9,42.435,47.495,42.435,24.15,0,44.735-15.755,46.23-37.03H530.15C528.655-30.475,523.365-26.8,516.7-26.8Zm107.87-55.89c-29.1,0-48.76,13.685-48.76,42.435,0,28.635,19.665,42.435,48.76,42.435s48.76-13.8,48.76-42.435C673.325-69,653.66-82.685,624.565-82.685Zm0,56c-9.66,0-15.41-5.29-15.41-13.57s5.75-13.685,15.41-13.685,15.41,5.405,15.41,13.685S634.225-26.68,624.565-26.68ZM743.13,0h32.89L761.07-27.715c6.785-4.83,10.12-12.535,10.12-23.23,0-19.78-11.385-29.555-34.845-29.555H688.85V0h30.705V-21.505H732.78ZM719.555-57.5H733.47c5.06,0,7.705,1.15,7.705,6.555,0,5.29-2.645,6.44-7.705,6.44H719.555ZM862.96-56.35V-80.5H789.82V0h73.14V-24.035H820.41v-5.29h39.215v-21.85H820.41V-56.35Z" transform="translate(-5.175 82.685)" fill="#f0f0f0"/>
</svg>
