<svg id="Component_38_1" data-name="Component 38 – 1" xmlns="http://www.w3.org/2000/svg" width="802.585" height="84.87" viewBox="0 0 802.585 84.87">
  <path id="Path_68" data-name="Path 68" d="M35.88-27.37V-80.5H5.175V0H81.65V-27.37ZM146.395-53.13V-80.5H90.275v27.37H103.04v25.76H90.275V0h56.12V-27.37H133.63V-53.13ZM221.26-80.5,207.345-27.37h-4.37L189.06-80.5H154.445L181.93,0h46.46l27.485-80.5Zm115.8,24.15V-80.5h-73.14V0h73.14V-24.035h-42.55v-5.29H333.73v-21.85H294.515V-56.35Zm50.6,58.42c20.7,0,39.215-4.945,39.215-27.945,0-19.665-19.665-21.85-27.37-23.575-7.705-1.84-20.7-3.1-20.7-7.705,0-3.1,3.22-4.37,8.165-4.37,4.83,0,9.085,2.3,9.085,6.44h28.4c0-21.16-20.815-27.6-37.375-27.6-13.11,0-39.445,1.265-39.445,27.715,0,13.34,8.28,18.745,27.255,24.035,8.97,2.415,18.515,3.22,18.515,6.9,0,2.645-2.645,4.025-8.51,4.025-5.175,0-11.385-1.725-11.385-7.245H344.54C344.54-14.145,357.3,2.07,387.665,2.07ZM482.195-26.8c-8.97,0-15.065-5.865-15.065-13.455,0-7.7,6.1-13.57,15.065-13.57,6.67,0,11.96,3.68,13.455,8.05h31.855c-1.495-21.275-22.08-36.915-46.23-36.915-30.59,0-47.495,17.71-47.495,42.435,0,24.61,16.9,42.435,47.495,42.435,24.15,0,44.735-15.755,46.23-37.03H495.65C494.155-30.475,488.865-26.8,482.195-26.8Zm100.97-55.89c-29.1,0-48.76,13.685-48.76,42.435,0,28.635,19.665,42.435,48.76,42.435s48.76-13.8,48.76-42.435C631.925-69,612.26-82.685,583.165-82.685Zm0,56c-9.66,0-15.41-5.29-15.41-13.57s5.75-13.685,15.41-13.685,15.41,5.405,15.41,13.685S592.825-26.68,583.165-26.68ZM694.83,0h32.89L712.77-27.715c6.785-4.83,10.12-12.535,10.12-23.23,0-19.78-11.385-29.555-34.845-29.555H640.55V0h30.705V-21.505H684.48ZM671.255-57.5H685.17c5.06,0,7.705,1.15,7.705,6.555,0,5.29-2.645,6.44-7.705,6.44H671.255ZM807.76-56.35V-80.5H734.62V0h73.14V-24.035H765.21v-5.29h39.215v-21.85H765.21V-56.35Z" transform="translate(-5.175 82.685)" fill="#f0f0f0"/>
</svg>
