<svg id="Component_2_1" data-name="Component 2 – 1" xmlns="http://www.w3.org/2000/svg" width="1007.725" height="300.496" viewBox="0 0 1007.725 300.496">
  <path id="Path_7" data-name="Path 7" d="M49.92-37.68V-56H3.6V0H24.88V-17.36H45.36v-16H24.88v-4.32ZM96.72,0H120.4L101.28-56H69.76L50.72,0h23.6L76.8-8.88H94.32ZM81.36-25.6,84.4-36.96h2.24L89.76-25.6ZM171.28-56v27.84H170L153.52-56H127.6V0h21.36V-28.56h1.28L167.52,0h25.12V-56Zm87.28,0H200.24v19.04h18.48V0h21.36V-36.96h18.48Zm47.2,56h23.68L310.32-56H278.8L259.76,0h23.6l2.48-8.88h17.52ZM290.4-25.6l3.04-11.36h2.24L298.8-25.6ZM363.04,1.44c14.4,0,27.28-3.44,27.28-19.44,0-13.68-13.68-15.2-19.04-16.4-5.36-1.28-14.4-2.16-14.4-5.36,0-2.16,2.24-3.04,5.68-3.04,3.36,0,6.32,1.6,6.32,4.48h19.76c0-14.72-14.48-19.2-26-19.2-9.12,0-27.44.88-27.44,19.28,0,9.28,5.76,13.04,18.96,16.72,6.24,1.68,12.88,2.24,12.88,4.8,0,1.84-1.84,2.8-5.92,2.8-3.6,0-7.92-1.2-7.92-5.04H333.04C333.04-9.84,341.92,1.44,363.04,1.44ZM455.12-56H432.24L425.2-35.84h-2.16L416-56H393.12l20.32,40.32V0H434.8V-15.68Zm81.36,18.32V-56H486.32V0H507.6V-16.56h24.24v-16H507.6v-5.12ZM576.4-57.52c-20.24,0-33.92,9.52-33.92,29.52,0,19.92,13.68,29.52,33.92,29.52S610.32-8.08,610.32-28C610.32-48,596.64-57.52,576.4-57.52Zm0,38.96c-6.72,0-10.72-3.68-10.72-9.44s4-9.52,10.72-9.52,10.72,3.76,10.72,9.52S583.12-18.56,576.4-18.56Zm74.24-38.96C630.4-57.52,616.72-48,616.72-28c0,19.92,13.68,29.52,33.92,29.52S684.56-8.08,684.56-28C684.56-48,670.88-57.52,650.64-57.52Zm0,38.96c-6.72,0-10.72-3.68-10.72-9.44s4-9.52,10.72-9.52,10.72,3.76,10.72,9.52S657.36-18.56,650.64-18.56ZM748.48-56H690.16v19.04h18.48V0H730V-36.96h18.48Zm54.4,27.2v-.56c4.56-.56,8.64-5.52,8.64-12.32C811.52-52,805.44-56,792.56-56H756.08V0h38c12.72,0,18.8-5.04,18.8-15.28C812.88-22.08,808.88-27.76,802.88-28.8ZM775.92-42.32h10c2.72,0,4.88.48,4.88,3.28s-2.16,3.2-4.88,3.2h-10Zm10.72,28H775.6V-22h11.04c3.04,0,5.44.64,5.44,3.84C792.08-14.88,789.68-14.32,786.64-14.32ZM862.48,0h23.68L867.04-56H835.52L816.48,0h23.6l2.48-8.88h17.52ZM847.12-25.6l3.04-11.36h2.24l3.12,11.36Zm67.6,6.56V-56H893.36V0h53.2V-19.04Zm60.8,0V-56H954.16V0h53.2V-19.04Z" transform="translate(0.365 97.071)" fill="#f0f0f0"/>
  <path id="Path_6" data-name="Path 6" d="M45.45-52.5,36.375-17.85h-2.85L24.45-52.5H1.875L19.8,0H50.1L68.025-52.5ZM111.9,0h22.2L116.175-52.5H86.625L68.775,0H90.9l2.325-8.325H109.65ZM97.5-24l2.85-10.65h2.1L105.375-24ZM90.9-74.175A9.378,9.378,0,0,0,81.525-64.8,9.378,9.378,0,0,0,90.9-55.425a9.378,9.378,0,0,0,9.375-9.375A9.378,9.378,0,0,0,90.9-74.175Zm21.075,0A9.378,9.378,0,0,0,102.6-64.8a9.378,9.378,0,0,0,9.375,9.375A9.378,9.378,0,0,0,121.35-64.8,9.378,9.378,0,0,0,111.975-74.175Zm48.9,56.325V-52.5H140.85V0h49.875V-17.85ZM205.2-52.5v17.85h18.225v12.675c0,3.225-1.575,4.725-4.125,4.725-2.25,0-4.05-1.65-4.05-4.725v-6.3H195.225V-21c0,13.425,7.95,22.425,24.075,22.425,18,0,24.15-7.8,24.15-24.825V-52.5Zm102,20.1a25.571,25.571,0,0,0-12.75.525h-.525l.3-5.625h19.05v-15h-36L275.85-21.3h15.6c4.65,0,5.625,1.275,5.625,4.275,0,2.85-.9,4.275-2.775,4.275-2.4,0-3.15-1.65-3.15-4.65H273.075c0,13.65,11.1,18.825,21.6,18.825,10.725,0,20.925-3.6,22.65-17.55C318.3-24.075,314.325-30.675,307.2-32.4ZM374.1,1.35c13.5,0,25.575-3.225,25.575-18.225,0-12.825-12.825-14.25-17.85-15.375-5.025-1.2-13.5-2.025-13.5-5.025,0-2.025,2.1-2.85,5.325-2.85,3.15,0,5.925,1.5,5.925,4.2H398.1c0-13.8-13.575-18-24.375-18-8.55,0-25.725.825-25.725,18.075,0,8.7,5.4,12.225,17.775,15.675,5.85,1.575,12.075,2.1,12.075,4.5,0,1.725-1.725,2.625-5.55,2.625-3.375,0-7.425-1.125-7.425-4.725h-18.9C345.975-9.225,354.3,1.35,374.1,1.35ZM436.35-52.5H406.8V0h19.95V-11.85h9.6c15.3,0,22.725-7.425,22.725-20.325S451.65-52.5,436.35-52.5Zm-2.625,24.225H426.75v-7.8h6.975c3.825,0,5.775.45,5.775,3.9S437.55-28.275,433.725-28.275ZM513.9-36.75V-52.5H466.2V0h47.7V-15.675H486.15v-3.45h25.575v-14.25H486.15V-36.75Zm27.525,18.9V-52.5H521.4V0h49.875V-17.85ZM617.025,0h22.2L621.3-52.5H591.75L573.9,0h22.125l2.325-8.325h16.425Zm-14.4-24,2.85-10.65h2.1L610.5-24Zm78.75,24h21.45l-9.75-18.075c4.425-3.15,6.6-8.175,6.6-15.15,0-12.9-7.425-19.275-22.725-19.275H645.975V0H666V-14.025h8.625ZM666-37.5h9.075c3.3,0,5.025.75,5.025,4.275,0,3.45-1.725,4.2-5.025,4.2H666Zm90.525.75V-52.5h-47.7V0h47.7V-15.675h-27.75v-3.45H754.35v-14.25H728.775V-36.75Z" transform="translate(0.365 203.071)" fill="#f0f0f0"/>
  <path id="Path_5" data-name="Path 5" d="M41.175-52.5l-7.65,34.65h-1.35L24.525-52.5H1.875L18.375,0H47.25l16.5-52.5ZM107.1-34.65V-52.5H70.5v17.85h8.325v16.8H70.5V0h36.6V-17.85H98.775v-16.8ZM156.3-52.5v26.1h-1.2L139.65-52.5h-24.3V0h20.025V-26.775h1.2L152.775,0h23.55V-52.5Zm69.225,0v26.1h-1.2l-15.45-26.1h-24.3V0H204.6V-26.775h1.2L222,0h23.55V-52.5ZM309.3-32.4a25.571,25.571,0,0,0-12.75.525h-.525l.3-5.625h19.05v-15h-36L277.95-21.3h15.6c4.65,0,5.625,1.275,5.625,4.275,0,2.85-.9,4.275-2.775,4.275-2.4,0-3.15-1.65-3.15-4.65H275.175c0,13.65,11.1,18.825,21.6,18.825,10.725,0,20.925-3.6,22.65-17.55C320.4-24.075,316.425-30.675,309.3-32.4Zm38.325-21.525c-14.025,0-22.8,10.2-22.8,27.675s8.775,27.675,22.8,27.675c14.1,0,22.8-10.2,22.8-27.675S361.725-53.925,347.625-53.925Zm0,39.225c-3.825,0-5.4-4.425-5.4-11.55s1.575-11.55,5.4-11.55c3.9,0,5.4,4.425,5.4,11.55S351.525-14.7,347.625-14.7Zm51.6-39.225c-14.025,0-22.8,10.2-22.8,27.675s8.775,27.675,22.8,27.675c14.1,0,22.8-10.2,22.8-27.675S413.325-53.925,399.225-53.925Zm0,39.225c-3.825,0-5.4-4.425-5.4-11.55s1.575-11.55,5.4-11.55c3.9,0,5.4,4.425,5.4,11.55S403.125-14.7,399.225-14.7ZM488.475,0H510.6L495.825-27,508.5-52.5H487.05l-7.725,17.325h-7.65V-52.5H451.65V0h20.025V-17.325h7.8ZM552.75,0H574.2l-9.75-18.075c4.425-3.15,6.6-8.175,6.6-15.15,0-12.9-7.425-19.275-22.725-19.275H517.35V0h20.025V-14.025H546ZM537.375-37.5h9.075c3.3,0,5.025.75,5.025,4.275,0,3.45-1.725,4.2-5.025,4.2h-9.075Z" transform="translate(0.365 299.071)" fill="#f0f0f0"/>
</svg>
