<svg id="Component_50_1" data-name="Component 50 – 1" xmlns="http://www.w3.org/2000/svg" width="250" height="250" viewBox="0 0 250 250">
  <path id="Path_82" data-name="Path 82" d="M0,0H250V250H0Z" fill="#ff5252"/>
  <g id="Group_10" data-name="Group 10" transform="translate(34.045 20.706)">
    <g id="Group_3" data-name="Group 3" transform="translate(0 22.915)" opacity="0.997">
      <g id="Group_1" data-name="Group 1" transform="translate(90.731)">
        <path id="Path_1" data-name="Path 1" d="M197.386,77.761a124.687,124.687,0,0,0,12.884,2.363,36.637,36.637,0,0,0-.588,6.37c.039,2.661.677,3.933,1.511,4.5a3.4,3.4,0,0,0,.378.191c2.833.932,4.873-3.354,5.266-4.237-1.82,1.122-5,2.113-4.847-4.965a50.274,50.274,0,0,1,.876-7.617,111.486,111.486,0,0,1-13.336-2.358c-10.912-2.429-13.851-12.781-15.107-18.4L181.134,66.34C182.616,70.733,186.813,75.407,197.386,77.761ZM214.6,195.478a105.663,105.663,0,0,1,13.5-20.111,83.051,83.051,0,0,1-12.844-12.253c-26.481-32.1,17.5-56.9,17.5-56.9s-14.9-4.42-26.567-9.1l5.5-3.911L198.6,96.88c11.53,4.934,26.193,9.673,26.193,9.673s-44.634,23.762-19.035,56.474a82.718,82.718,0,0,0,12.509,12.548c-9.783,11.006-16.688,22.678-20.047,33.875-.031.082-.056.158-.086.239a17.736,17.736,0,0,0-1.305,6.853,68.326,68.326,0,0,1-18.231-3.689,141.67,141.67,0,0,1-19.538-8.406,82.066,82.066,0,0,1-17.038,14.68v19.507a102.044,102.044,0,0,0,19.352-24.662c2.216,1,4.458,1.893,6.7,2.726,6.9,2.424,19.249,5.739,29.608,2.953,12.329-3.315,27.751-16.587,27.751-16.587s-15.2,1.729-10.89-7.375Z" transform="translate(-142.026 -53.614)" fill="#fff"/>
      </g>
      <g id="Group_2" data-name="Group 2">
        <path id="Path_2" data-name="Path 2" d="M102.92,66.34,99.632,53.614c-1.259,5.614-4.2,15.967-15.108,18.4a111.536,111.536,0,0,1-13.339,2.358,50.447,50.447,0,0,1,.88,7.617c.151,7.078-3.03,6.087-4.851,4.965.4.883,2.436,5.169,5.269,4.237A3.171,3.171,0,0,0,72.857,91c.835-.569,1.474-1.841,1.512-4.5a36.252,36.252,0,0,0-.588-6.37,124.745,124.745,0,0,0,12.887-2.363C97.238,75.407,101.438,70.733,102.92,66.34ZM69.5,195.69c4.309,9.1-10.892,7.375-10.892,7.375s15.424,13.271,27.752,16.587c10.36,2.786,22.715-.529,29.611-2.953,2.242-.833,4.484-1.731,6.7-2.726a102.087,102.087,0,0,0,19.35,24.662V219.128a82.045,82.045,0,0,1-17.039-14.68,141.753,141.753,0,0,1-19.536,8.406,68.338,68.338,0,0,1-18.234,3.689,17.744,17.744,0,0,0-1.3-6.853c-.027-.081-.057-.157-.086-.239-3.357-11.2-10.262-22.869-20.048-33.875a82.749,82.749,0,0,0,12.513-12.548c25.6-32.711-19.035-56.474-19.035-56.474s14.66-4.739,26.192-9.673L72.361,93.2l5.5,3.911c-11.669,4.677-26.567,9.1-26.567,9.1s43.98,24.8,17.5,56.9a82.9,82.9,0,0,1-12.848,12.253,105.738,105.738,0,0,1,13.5,20.111Z" transform="translate(-51.295 -53.614)" fill="#fff"/>
      </g>
    </g>
    <g id="Group_4" data-name="Group 4" transform="translate(54.062)">
      <path id="Path_3" data-name="Path 3" d="M156.857,51.35,142.026,35.2,127.2,51.35l-18.308-9.041,2.78,29.9h60.711l2.784-29.9Z" transform="translate(-105.357 -30.699)" fill="#fff"/>
      <path id="Path_4" data-name="Path 4" d="M159.1,49.294,144.266,33.139l-2.241-2.44-2.239,2.44-14.83,16.155,3.587-.671-18.307-9.041-4.879-2.408.5,5.417,2.78,29.9.257,2.76h66.254l.257-2.76,2.784-29.894.505-5.419-4.88,2.409-18.306,9.041Zm13.039-7.266-2.784,29.894,3.028-2.759H111.669l3.029,2.76-2.781-29.895-4.375,3.008,18.308,9.041,2.045,1.01,1.542-1.68,14.829-16.155h-4.48l14.831,16.155,1.543,1.68,2.044-1.01,18.308-9.041Z" transform="translate(-105.357 -30.699)" fill="none"/>
    </g>
  </g>
  <path id="Path_78" data-name="Path 78" d="M46.2,2.28C67.92,2.28,84.84-3,84.84-27c0-20.52-20.52-22.68-28.56-24.6s-16.92-3.72-16.92-7.92c0-3.24,2.4-4.56,6.12-4.56,3.96,0,7.2,2.28,7.2,6.6H82.32c0-22.08-19.44-28.8-36.72-28.8-13.68,0-38.76,1.32-38.76,29.04,0,13.8,8.64,19.44,28.44,24.96,9.36,2.64,14.64,3.36,14.64,7.32,0,2.64-2.16,4.08-6.6,4.08-4.2,0-9.48-1.8-9.48-7.44H3.6C3.6-14.76,14.64,2.28,46.2,2.28Z" transform="translate(80.75 167.007)" fill="#fff"/>
</svg>
