<svg id="Component_30_1" data-name="Component 30 – 1" xmlns="http://www.w3.org/2000/svg" width="1336.875" height="84.87" viewBox="0 0 1336.875 84.87">
  <path id="Path_60" data-name="Path 60" d="M71.76-54.165V-80.5H5.175V0h30.59V-24.955H65.2v-23H35.765v-6.21ZM123.4-82.685c-26.91,0-45.31,17.825-45.31,42.435S96.485,2.185,123.4,2.185s45.31-17.825,45.31-42.435S150.3-82.685,123.4-82.685Zm0,56A13.452,13.452,0,0,1,110.17-40.25c0-7.475,5.175-13.57,13.225-13.57s13.225,6.1,13.225,13.57A13.452,13.452,0,0,1,123.4-26.68ZM254.955-80.5h-80.5v27.37H199.41V0H230V-53.13h24.955Zm70.38,39.1v-.805c6.555-.805,12.42-7.935,12.42-17.71,0-14.835-8.74-20.585-27.255-20.585H263.58V0h49.105C330.97,0,339.71-7.245,339.71-21.965,339.71-31.74,333.96-39.9,325.335-41.4ZM292.1-60.835h8.97c3.795,0,6.9.69,6.9,4.715s-3.105,4.6-6.9,4.6H292.1Zm9.89,40.25H291.64v-11.04h10.35c4.37,0,7.82.92,7.82,5.52C309.81-21.39,306.36-20.585,301.99-20.585Zm89.93-62.1c-26.91,0-45.31,17.825-45.31,42.435s18.4,42.435,45.31,42.435S437.23-15.64,437.23-40.25,418.83-82.685,391.92-82.685Zm0,56A13.452,13.452,0,0,1,378.7-40.25c0-7.475,5.175-13.57,13.225-13.57s13.225,6.1,13.225,13.57A13.452,13.452,0,0,1,391.92-26.68Zm84.525-.69V-80.5h-30.59V0h71.99V-27.37Zm80.615,0V-80.5H526.47V0h71.99V-27.37ZM648.485,2.07c20.7,0,39.215-4.945,39.215-27.945,0-19.665-19.665-21.85-27.37-23.575-7.7-1.84-20.7-3.1-20.7-7.705,0-3.1,3.22-4.37,8.165-4.37,4.83,0,9.085,2.3,9.085,6.44h28.405c0-21.16-20.815-27.6-37.375-27.6-13.11,0-39.445,1.265-39.445,27.715,0,13.34,8.28,18.745,27.255,24.035,8.97,2.415,18.515,3.22,18.515,6.9,0,2.645-2.645,4.025-8.51,4.025-5.175,0-11.385-1.725-11.385-7.245H605.36C605.36-14.145,618.125,2.07,648.485,2.07ZM759.115-80.5v40.02h-1.84L733.585-80.5h-37.26V0H727.03V-41.055h1.84L753.71,0h36.11V-80.5Zm127.88,0H854.1l-10.12,28.98h-3.1L830.76-80.5H797.87l29.21,57.96V0h30.7V-22.54Zm71.415,0v26.565H925.75V-80.5H895.045V0H925.75V-26.565h32.66V0h30.705V-80.5Zm114.2,24.15V-80.5h-73.14V0h73.14V-24.035h-42.55v-5.29h39.215v-21.85h-39.215V-56.35Zm91.31-24.15H1080.08v27.37h26.565V0h30.7V-53.13h26.565Zm81.765,24.15V-80.5h-73.14V0h73.14V-24.035h-42.55v-5.29h39.215v-21.85H1203.13V-56.35ZM1309.16,0h32.89L1327.1-27.715c6.785-4.83,10.12-12.535,10.12-23.23,0-19.78-11.385-29.555-34.845-29.555H1254.88V0h30.7V-21.505h13.225Zm-23.575-57.5H1299.5c5.06,0,7.7,1.15,7.7,6.555,0,5.29-2.645,6.44-7.7,6.44h-13.915Z" transform="translate(-5.175 82.685)" fill="#f0f0f0"/>
</svg>
