<svg id="Component_46_1" data-name="Component 46 – 1" xmlns="http://www.w3.org/2000/svg" width="687.125" height="80.5" viewBox="0 0 687.125 80.5">
  <path id="Path_76" data-name="Path 76" d="M67.965-80.5v40.02h-1.84L42.435-80.5H5.175V0H35.88V-41.055h1.84L62.56,0H98.67V-80.5Zm134.78,0h-32.89l-10.12,28.98h-3.1L146.51-80.5H113.62l29.21,57.96V0h30.705V-22.54Zm78.315,0v26.565H248.4V-80.5H217.7V0H248.4V-26.565h32.66V0h30.705V-80.5Zm121.1,24.15V-80.5h-73.14V0h73.14V-24.035H359.6v-5.29H398.82v-21.85H359.6V-56.35Zm98.21-24.15H416.53v27.37H443.1V0h30.7V-53.13h26.565ZM589.03-56.35V-80.5H515.89V0h73.14V-24.035H546.48v-5.29H585.7v-21.85H546.48V-56.35ZM659.41,0H692.3L677.35-27.715c6.785-4.83,10.12-12.535,10.12-23.23,0-19.78-11.385-29.555-34.845-29.555H605.13V0h30.705V-21.505H649.06ZM635.835-57.5H649.75c5.06,0,7.705,1.15,7.705,6.555,0,5.29-2.645,6.44-7.705,6.44H635.835Z" transform="translate(-5.175 80.5)" fill="#f0f0f0"/>
</svg>
