<svg id="Component_28_1" data-name="Component 28 – 1" xmlns="http://www.w3.org/2000/svg" width="607.43" height="80.5" viewBox="0 0 607.43 80.5">
  <path id="Path_58" data-name="Path 58" d="M63.595-80.5v40.02h-.8L44.62-80.5H5.175V0H35.88V-40.02h.805L55.89,0H94.3V-80.5Zm123.51,0h-31.74l-10.12,30.13H144.21L134.09-80.5H102.35l27.025,57.96V0H160.08V-22.54Zm62.56,0v26.565h-23.8V-80.5H195.155V0H225.86V-26.565h23.8V0H280.37V-80.5Zm108.79,24.15V-80.5H290.72V0h67.735V-24.15h-37.03v-5.175h33.7v-21.85h-33.7V-56.35ZM446.43-80.5h-80.5v27.37h24.955V0h30.59V-53.13H446.43Zm76.36,24.15V-80.5H455.055V0H522.79V-24.15H485.76v-5.175h33.7v-21.85h-33.7V-56.35ZM579.715,0H612.6L597.77-27.715c6.67-4.83,10.005-12.535,10.005-23.23,0-19.78-11.385-29.555-34.73-29.555H531.99V0H562.7V-21.505h6.67Zm-9.66-57.5c5.06,0,7.82,1.725,7.82,6.555,0,4.715-2.76,6.44-7.82,6.44H562.7V-57.5Z" transform="translate(-5.175 80.5)" fill="#f0f0f0"/>
</svg>
