<svg id="Component_33_1" data-name="Component 33 – 1" xmlns="http://www.w3.org/2000/svg" width="1127.23" height="115.92" viewBox="0 0 1127.23 115.92">
  <path id="Path_63" data-name="Path 63" d="M69.69-80.5,55.775-27.37H51.4L37.49-80.5H2.875L30.36,0H76.82l27.485-80.5ZM169.28,0h34.04L175.835-80.5h-45.31L103.155,0H137.08l3.565-12.765H165.83ZM147.2-36.8l4.37-16.33h3.22l4.485,16.33Zm-10.12-76.935A14.38,14.38,0,0,0,122.705-99.36,14.38,14.38,0,0,0,137.08-84.985,14.38,14.38,0,0,0,151.455-99.36,14.38,14.38,0,0,0,137.08-113.735Zm32.315,0A14.38,14.38,0,0,0,155.02-99.36a14.38,14.38,0,0,0,14.375,14.375A14.38,14.38,0,0,0,183.77-99.36,14.38,14.38,0,0,0,169.395-113.735Zm72.68,86.365V-80.5H211.37V0h76.475V-27.37ZM307.74-80.5v27.37h27.945v19.435c0,4.945-2.415,7.245-6.325,7.245-3.45,0-6.21-2.53-6.21-7.245v-9.66h-30.7V-32.2c0,20.585,12.19,34.385,36.915,34.385,27.6,0,37.03-11.96,37.03-38.065V-80.5Zm151.8,30.82a39.209,39.209,0,0,0-19.55.805h-.805l.46-8.625h29.21v-23h-55.2L411.47-32.66h23.92c7.13,0,8.625,1.955,8.625,6.555,0,4.37-1.38,6.555-4.255,6.555-3.68,0-4.83-2.53-4.83-7.13H407.215c0,20.93,17.02,28.865,33.12,28.865,16.445,0,32.085-5.52,34.73-26.91C476.56-36.915,470.465-47.035,459.54-49.68ZM557.52,2.07c20.7,0,39.215-4.945,39.215-27.945,0-19.665-19.665-21.85-27.37-23.575-7.7-1.84-20.7-3.1-20.7-7.705,0-3.1,3.22-4.37,8.165-4.37,4.83,0,9.085,2.3,9.085,6.44H594.32c0-21.16-20.815-27.6-37.375-27.6-13.11,0-39.445,1.265-39.445,27.715,0,13.34,8.28,18.745,27.255,24.035,8.97,2.415,18.515,3.22,18.515,6.9,0,2.645-2.645,4.025-8.51,4.025-5.175,0-11.385-1.725-11.385-7.245H514.4C514.4-14.145,527.16,2.07,557.52,2.07ZM650.67-80.5H605.36V0h30.59V-18.17h14.72c23.46,0,34.845-11.385,34.845-31.165S674.13-80.5,650.67-80.5Zm-4.025,37.145h-10.7v-11.96h10.7c5.865,0,8.855.69,8.855,5.98S652.51-43.355,646.645-43.355Zm120.635-13V-80.5H694.14V0h73.14V-24.035H724.73v-5.29h39.215v-21.85H724.73V-56.35Zm39.9,28.98V-80.5H776.48V0h76.475V-27.37ZM920.8,0h34.04L927.36-80.5H882.05L854.68,0H888.6l3.565-12.765h25.185Zm-22.08-36.8,4.37-16.33h3.22L910.8-36.8ZM1017.175,0h32.89l-14.95-27.715c6.785-4.83,10.12-12.535,10.12-23.23,0-19.78-11.385-29.555-34.845-29.555H962.895V0H993.6V-21.505h13.225ZM993.6-57.5h13.915c5.06,0,7.705,1.15,7.705,6.555,0,5.29-2.645,6.44-7.705,6.44H993.6ZM1130.1-56.35V-80.5h-73.14V0h73.14V-24.035h-42.55v-5.29h39.215v-21.85h-39.215V-56.35Z" transform="translate(-2.875 113.735)" fill="#292929"/>
</svg>
