<svg id="Component_34_1" data-name="Component 34 – 1" xmlns="http://www.w3.org/2000/svg" width="1120.675" height="115.92" viewBox="0 0 1120.675 115.92">
  <path id="Path_64" data-name="Path 64" d="M63.135-80.5,51.4-27.37h-2.07L37.6-80.5H2.875L28.175,0H72.45l25.3-80.5ZM162.725,0h34.04L169.28-80.5H123.97L96.6,0h33.925l3.565-12.765h25.185Zm-22.08-36.8,4.37-16.33h3.22L152.72-36.8Zm-10.12-76.935A14.38,14.38,0,0,0,116.15-99.36a14.38,14.38,0,0,0,14.375,14.375A14.38,14.38,0,0,0,144.9-99.36,14.38,14.38,0,0,0,130.525-113.735Zm32.315,0A14.38,14.38,0,0,0,148.465-99.36,14.38,14.38,0,0,0,162.84-84.985,14.38,14.38,0,0,0,177.215-99.36,14.38,14.38,0,0,0,162.84-113.735ZM235.52-27.37V-80.5H204.815V0H281.29V-27.37ZM301.185-80.5v27.37H329.13v19.435c0,4.945-2.415,7.245-6.325,7.245-3.45,0-6.21-2.53-6.21-7.245v-9.66h-30.7V-32.2c0,20.585,12.19,34.385,36.915,34.385,27.6,0,37.03-11.96,37.03-38.065V-80.5Zm151.8,30.82a39.209,39.209,0,0,0-19.55.805h-.8l.46-8.625H462.3v-23H407.1l-2.185,47.84h23.92c7.13,0,8.625,1.955,8.625,6.555,0,4.37-1.38,6.555-4.255,6.555-3.68,0-4.83-2.53-4.83-7.13H400.66c0,20.93,17.02,28.865,33.12,28.865,16.445,0,32.085-5.52,34.73-26.91C470.005-36.915,463.91-47.035,452.985-49.68Zm97.98,51.75c20.7,0,39.215-4.945,39.215-27.945,0-19.665-19.665-21.85-27.37-23.575-7.7-1.84-20.7-3.1-20.7-7.705,0-3.1,3.22-4.37,8.165-4.37,4.83,0,9.085,2.3,9.085,6.44h28.405c0-21.16-20.815-27.6-37.375-27.6-13.11,0-39.445,1.265-39.445,27.715,0,13.34,8.28,18.745,27.255,24.035,8.97,2.415,18.515,3.22,18.515,6.9,0,2.645-2.645,4.025-8.51,4.025-5.175,0-11.385-1.725-11.385-7.245H507.84C507.84-14.145,520.605,2.07,550.965,2.07Zm93.15-82.57H598.8V0H629.4V-18.17h14.72c23.46,0,34.845-11.385,34.845-31.165S667.575-80.5,644.115-80.5ZM640.09-43.355H629.4v-11.96h10.7c5.865,0,8.855.69,8.855,5.98S645.955-43.355,640.09-43.355Zm120.635-13V-80.5h-73.14V0h73.14V-24.035h-42.55v-5.29H757.39v-21.85H718.175V-56.35ZM800.63-27.37V-80.5H769.925V0H846.4V-27.37ZM914.25,0h34.04L920.8-80.5h-45.31L848.125,0H882.05l3.565-12.765H910.8ZM892.17-36.8l4.37-16.33h3.22l4.485,16.33ZM1010.62,0h32.89l-14.95-27.715c6.785-4.83,10.12-12.535,10.12-23.23,0-19.78-11.385-29.555-34.845-29.555H956.34V0h30.705V-21.505h13.225ZM987.045-57.5h13.915c5.06,0,7.705,1.15,7.705,6.555,0,5.29-2.645,6.44-7.705,6.44H987.045Zm136.505,1.15V-80.5h-73.14V0h73.14V-24.035H1081v-5.29h39.215v-21.85H1081V-56.35Z" transform="translate(-2.875 113.735)" fill="#f0f0f0"/>
</svg>
