<svg id="Component_3_1" data-name="Component 3 – 1" xmlns="http://www.w3.org/2000/svg" width="140.155" height="65.778" viewBox="0 0 140.155 65.778">
  <g id="Component_2_1" data-name="Component 2 – 1">
    <g id="Component_1_1" data-name="Component 1 – 1">
      <g id="Group_1" data-name="Group 1" transform="translate(20.682 8.047)">
        <path id="Path_2" data-name="Path 2" d="M144.752,29.958l4.311-4.311h.919l-4.311,4.311Z" transform="translate(-85.595 -25.647)" fill="#fff"/>
        <path id="Path_3" data-name="Path 3" d="M175.379,65.186V58.979l4.311-4.311V69.5H164.86l4.311-4.311Z" transform="translate(-60.217 -25.647)" fill="#f50000"/>
        <path id="Path_4" data-name="Path 4" d="M179.1,36.061v6.531l-3.136,3.135V39.2l3.136-3.135Zm.587-1.419-4.31,4.311v8.193l4.31-4.311V34.642Z" transform="translate(-60.217 -25.647)" fill="#f50000"/>
        <path id="Path_5" data-name="Path 5" d="M175.379,34.518l4.311-4.311v2.9l-4.311,4.311Z" transform="translate(-60.217 -25.647)" fill="#0af"/>
        <path id="Path_6" data-name="Path 6" d="M112.849,59.692v-1.6l4.311-4.311v1.6Z" transform="translate(-112.849 -25.647)" fill="#dec385"/>
        <path id="Path_7" data-name="Path 7" d="M133.88,26.235l-3.136,3.135h-3.5l3.135-3.135Zm1.419-.588H130.14l-4.311,4.311h5.159l4.311-4.311Z" transform="translate(-100.941 -25.647)" fill="#dec385"/>
        <path id="Path_8" data-name="Path 8" d="M117.16,29.958V42.84l-4.311,4.311v-21.5H128.62l-4.311,4.311Z" transform="translate(-112.849 -25.647)"/>
      </g>
      <g id="Group_4" data-name="Group 4" transform="translate(0 45.911)">
        <g id="Group_2" data-name="Group 2" transform="translate(82.59)">
          <ellipse id="Ellipse_3" data-name="Ellipse 3" cx="0.437" cy="0.451" rx="0.437" ry="0.451" transform="translate(0 0)" fill="#dec385"/>
          <path id="Path_9" data-name="Path 9" d="M170.464,64.413a.451.451,0,1,0-.436-.451A.444.444,0,0,0,170.464,64.413Z" transform="translate(-163.734 -63.511)" fill="#dec385"/>
          <ellipse id="Ellipse_4" data-name="Ellipse 4" cx="0.437" cy="0.451" rx="0.437" ry="0.451" transform="translate(0 6.284)" fill="#dec385"/>
          <path id="Path_10" data-name="Path 10" d="M170.464,70.7a.451.451,0,1,0-.436-.451A.444.444,0,0,0,170.464,70.7Z" transform="translate(-163.734 -63.511)" fill="#dec385"/>
          <ellipse id="Ellipse_5" data-name="Ellipse 5" cx="0.437" cy="0.451" rx="0.437" ry="0.451" transform="translate(0 12.595)" fill="#dec385"/>
          <path id="Path_11" data-name="Path 11" d="M170.464,77.008a.451.451,0,1,0-.436-.451A.444.444,0,0,0,170.464,77.008Z" transform="translate(-163.734 -63.511)" fill="#dec385"/>
          <ellipse id="Ellipse_6" data-name="Ellipse 6" cx="0.437" cy="0.451" rx="0.437" ry="0.451" transform="translate(12.588 0.263)" fill="#dec385"/>
          <path id="Path_12" data-name="Path 12" d="M183.052,64.676a.451.451,0,1,0-.437-.451A.444.444,0,0,0,183.052,64.676Z" transform="translate(-163.734 -63.511)" fill="#dec385"/>
          <ellipse id="Ellipse_7" data-name="Ellipse 7" cx="0.437" cy="0.451" rx="0.437" ry="0.451" transform="translate(12.588 6.547)" fill="#dec385"/>
          <path id="Path_13" data-name="Path 13" d="M183.052,70.959a.451.451,0,1,0-.437-.451A.444.444,0,0,0,183.052,70.959Z" transform="translate(-163.734 -63.511)" fill="#dec385"/>
          <path id="Path_14" data-name="Path 14" d="M176.758,77.271a.452.452,0,1,0-.436-.451A.444.444,0,0,0,176.758,77.271Z" transform="translate(-163.734 -63.511)" fill="#dec385"/>
          <path id="Path_15" data-name="Path 15" d="M183.052,77.271a.452.452,0,1,0-.437-.451A.444.444,0,0,0,183.052,77.271Z" transform="translate(-163.734 -63.511)" fill="#dec385"/>
        </g>
        <g id="Group_3" data-name="Group 3">
          <path id="Path_16" data-name="Path 16" d="M98,75.8a.426.426,0,1,0-.426.412A.419.419,0,0,0,98,75.8Z" transform="translate(-97.144 -63.511)" fill="#02d9ff"/>
          <ellipse id="Ellipse_8" data-name="Ellipse 8" cx="0.425" cy="0.412" rx="0.425" ry="0.412" transform="translate(0 5.938)" fill="#02d9ff"/>
          <path id="Path_17" data-name="Path 17" d="M103.923,75.8a.426.426,0,1,0-.426.412A.419.419,0,0,0,103.923,75.8Z" transform="translate(-97.144 -63.511)" fill="#02d9ff"/>
          <path id="Path_18" data-name="Path 18" d="M103.923,69.86a.426.426,0,1,0-.426.412A.42.42,0,0,0,103.923,69.86Z" transform="translate(-97.144 -63.511)" fill="#02d9ff"/>
          <path id="Path_19" data-name="Path 19" d="M109.876,75.8a.426.426,0,1,0-.425.412A.418.418,0,0,0,109.876,75.8Z" transform="translate(-97.144 -63.511)" fill="#02d9ff"/>
          <path id="Path_20" data-name="Path 20" d="M109.876,69.86a.426.426,0,1,0-.425.412A.419.419,0,0,0,109.876,69.86Z" transform="translate(-97.144 -63.511)" fill="#02d9ff"/>
          <path id="Path_21" data-name="Path 21" d="M115.8,75.8a.426.426,0,1,0-.425.412A.418.418,0,0,0,115.8,75.8Z" transform="translate(-97.144 -63.511)" fill="#02d9ff"/>
          <path id="Path_22" data-name="Path 22" d="M115.8,69.86a.426.426,0,1,0-.425.412A.419.419,0,0,0,115.8,69.86Z" transform="translate(-97.144 -63.511)" fill="#02d9ff"/>
          <path id="Path_23" data-name="Path 23" d="M122.075,75.8a.426.426,0,1,0-.425.412A.418.418,0,0,0,122.075,75.8Z" transform="translate(-97.144 -63.511)" fill="#02d9ff"/>
          <ellipse id="Ellipse_9" data-name="Ellipse 9" cx="0.425" cy="0.412" rx="0.425" ry="0.412" transform="translate(24.08 5.938)" fill="#02d9ff"/>
          <path id="Path_24" data-name="Path 24" d="M128,75.8a.426.426,0,1,0-.425.412A.419.419,0,0,0,128,75.8Z" transform="translate(-97.144 -63.511)" fill="#02d9ff"/>
          <path id="Path_25" data-name="Path 25" d="M128,69.86a.426.426,0,1,0-.425.412A.419.419,0,0,0,128,69.86Z" transform="translate(-97.144 -63.511)" fill="#02d9ff"/>
          <path id="Path_26" data-name="Path 26" d="M133.957,75.8a.426.426,0,1,0-.426.412A.419.419,0,0,0,133.957,75.8Z" transform="translate(-97.144 -63.511)" fill="#02d9ff"/>
          <path id="Path_27" data-name="Path 27" d="M133.957,69.86a.426.426,0,1,0-.426.412A.42.42,0,0,0,133.957,69.86Z" transform="translate(-97.144 -63.511)" fill="#02d9ff"/>
          <path id="Path_28" data-name="Path 28" d="M98.242,63.923a.425.425,0,1,0-.425.412A.419.419,0,0,0,98.242,63.923Z" transform="translate(-97.144 -63.511)" fill="#02d9ff"/>
          <path id="Path_29" data-name="Path 29" d="M104.17,63.923a.426.426,0,1,0-.425.412A.419.419,0,0,0,104.17,63.923Z" transform="translate(-97.144 -63.511)" fill="#02d9ff"/>
          <path id="Path_30" data-name="Path 30" d="M110.124,63.923a.426.426,0,1,0-.425.412A.419.419,0,0,0,110.124,63.923Z" transform="translate(-97.144 -63.511)" fill="#02d9ff"/>
          <path id="Path_31" data-name="Path 31" d="M116.052,63.923a.426.426,0,1,0-.426.412A.42.42,0,0,0,116.052,63.923Z" transform="translate(-97.144 -63.511)" fill="#02d9ff"/>
          <path id="Path_32" data-name="Path 32" d="M122.323,63.923a.426.426,0,1,0-.426.412A.42.42,0,0,0,122.323,63.923Z" transform="translate(-97.144 -63.511)" fill="#02d9ff"/>
          <path id="Path_33" data-name="Path 33" d="M128.251,63.923a.426.426,0,1,0-.426.412A.42.42,0,0,0,128.251,63.923Z" transform="translate(-97.144 -63.511)" fill="#02d9ff"/>
          <path id="Path_34" data-name="Path 34" d="M134.2,63.923a.425.425,0,1,0-.425.412A.419.419,0,0,0,134.2,63.923Z" transform="translate(-97.144 -63.511)" fill="#02d9ff"/>
        </g>
      </g>
      <g id="Group_7" data-name="Group 7" transform="translate(2.399 0)">
        <g id="Group_5" data-name="Group 5" transform="translate(6.533)">
          <rect id="Rectangle_2" data-name="Rectangle 2" width="13.058" height="0.184" transform="translate(2.589 53.746) rotate(-45)" fill="#0af"/>
          <rect id="Rectangle_3" data-name="Rectangle 3" width="15.038" height="0.336" transform="translate(4.295 57.052) rotate(-45)" fill="#0af"/>
          <rect id="Rectangle_4" data-name="Rectangle 4" width="3.264" height="0.284" transform="matrix(0.707, -0.707, 0.707, 0.707, 4.583, 38.844)" fill="#0af"/>
          <rect id="Rectangle_5" data-name="Rectangle 5" width="5.547" height="0.282" transform="matrix(0.707, -0.707, 0.707, 0.707, 5.452, 37.29)" fill="#0af"/>
          <rect id="Rectangle_6" data-name="Rectangle 6" width="5.547" height="0.138" transform="matrix(0.707, -0.707, 0.707, 0.707, 6.404, 36.896)" fill="#0af"/>
          <rect id="Rectangle_7" data-name="Rectangle 7" width="5.035" height="0.211" transform="matrix(0.707, -0.707, 0.707, 0.707, 6.75, 35.351)" fill="#0af"/>
          <rect id="Rectangle_8" data-name="Rectangle 8" width="6.625" height="0.166" transform="matrix(0.707, -0.707, 0.707, 0.707, 5.474, 38.935)" fill="#0af"/>
          <rect id="Rectangle_9" data-name="Rectangle 9" width="13.058" height="0.406" transform="matrix(0.707, -0.707, 0.707, 0.707, 2.773, 57.384)" fill="#0af"/>
          <rect id="Rectangle_10" data-name="Rectangle 10" width="5.547" height="0.361" transform="matrix(0.707, -0.707, 0.707, 0.707, 6.351, 34.952)" fill="#0af"/>
          <rect id="Rectangle_11" data-name="Rectangle 11" width="5.547" height="0.268" transform="translate(6.202 37.309) rotate(-45)" fill="#0af"/>
          <rect id="Rectangle_12" data-name="Rectangle 12" width="5.547" height="0.128" transform="matrix(0.707, -0.707, 0.707, 0.707, 5.765, 34.729)" fill="#0af"/>
          <rect id="Rectangle_13" data-name="Rectangle 13" width="5.547" height="0.274" transform="translate(7.541 32.295) rotate(-44.999)" fill="#0af"/>
          <rect id="Rectangle_14" data-name="Rectangle 14" width="13.058" height="0.101" transform="translate(1.611 55.563) rotate(-45)" fill="#0af"/>
          <rect id="Rectangle_15" data-name="Rectangle 15" width="5.035" height="0.158" transform="translate(4.828 36.303) rotate(-45)" fill="#0af"/>
          <rect id="Rectangle_16" data-name="Rectangle 16" width="13.779" height="0.502" transform="translate(6.676 55.921) rotate(-45)" fill="#0af"/>
          <rect id="Rectangle_17" data-name="Rectangle 17" width="12.366" height="0.108" transform="translate(0.749 53.437) rotate(-45)" fill="#0af"/>
          <rect id="Rectangle_18" data-name="Rectangle 18" width="10.579" height="0.264" transform="translate(4.019 47.241) rotate(-45)" fill="#0af"/>
          <rect id="Rectangle_19" data-name="Rectangle 19" width="15.038" height="0.218" transform="translate(0.388 51.801) rotate(-45)" fill="#0af"/>
          <rect id="Rectangle_20" data-name="Rectangle 20" width="13.058" height="0.282" transform="matrix(0.707, -0.707, 0.707, 0.707, 0.67, 54.231)" fill="#0af"/>
          <rect id="Rectangle_21" data-name="Rectangle 21" width="12.366" height="0.138" transform="translate(1.19 54.269) rotate(-45)" fill="#0af"/>
          <rect id="Rectangle_22" data-name="Rectangle 22" width="10.578" height="0.19" transform="translate(3.523 49.522) rotate(-45)" fill="#0af"/>
          <rect id="Rectangle_23" data-name="Rectangle 23" width="13.058" height="0.158" transform="translate(0 51.798) rotate(-45)" fill="#0af"/>
          <rect id="Rectangle_24" data-name="Rectangle 24" width="13.058" height="0.101" transform="translate(2.159 60.552) rotate(-45)" fill="#0af"/>
          <rect id="Rectangle_25" data-name="Rectangle 25" width="10.148" height="0.101" transform="translate(3.253 40.961) rotate(-45)" fill="#0af"/>
          <rect id="Rectangle_26" data-name="Rectangle 26" width="12.958" height="0.264" transform="translate(7.324 56.543) rotate(-45)" fill="#0af"/>
          <rect id="Rectangle_27" data-name="Rectangle 27" width="12.958" height="0.158" transform="matrix(0.707, -0.707, 0.707, 0.707, 8.433, 56.868)" fill="#0af"/>
          <rect id="Rectangle_28" data-name="Rectangle 28" width="15.038" height="0.264" transform="translate(7.505 57.321) rotate(-45)" fill="#0af"/>
          <rect id="Rectangle_29" data-name="Rectangle 29" width="9.515" height="0.108" transform="translate(84.647 15.332) rotate(-45)" fill="#0af"/>
          <rect id="Rectangle_30" data-name="Rectangle 30" width="11.807" height="0.105" transform="matrix(0.707, -0.707, 0.707, 0.707, 75.927, 12.135)" fill="#0af"/>
          <rect id="Rectangle_31" data-name="Rectangle 31" width="11.807" height="0.184" transform="translate(80.114 11.323) rotate(-45)" fill="#0af"/>
          <rect id="Rectangle_32" data-name="Rectangle 32" width="10.959" height="0.264" transform="translate(85.32 9.761) rotate(-45)" fill="#0af"/>
          <rect id="Rectangle_33" data-name="Rectangle 33" width="9.515" height="0.218" transform="translate(84.025 13.957) rotate(-45)" fill="#0af"/>
          <rect id="Rectangle_34" data-name="Rectangle 34" width="11.807" height="0.084" transform="translate(78.571 13.088) rotate(-45)" fill="#0af"/>
          <rect id="Rectangle_35" data-name="Rectangle 35" width="12.522" height="0.084" transform="translate(30.119 15.49) rotate(-45)" fill="#0af"/>
          <rect id="Rectangle_36" data-name="Rectangle 36" width="6.3" height="0.396" transform="translate(87.071 9.849) rotate(-44.999)" fill="#0af"/>
          <rect id="Rectangle_37" data-name="Rectangle 37" width="11.807" height="0.148" transform="matrix(0.707, -0.707, 0.707, 0.707, 80.35, 9.379)" fill="#0af"/>
          <rect id="Rectangle_38" data-name="Rectangle 38" width="10.959" height="0.336" transform="translate(85.431 10.545) rotate(-45)" fill="#0af"/>
          <rect id="Rectangle_39" data-name="Rectangle 39" width="4.027" height="0.284" transform="translate(41.167 9.684) rotate(-44.999)" fill="#0af"/>
          <rect id="Rectangle_40" data-name="Rectangle 40" width="7.42" height="0.211" transform="translate(37.142 13.034) rotate(-44.999)" fill="#0af"/>
          <rect id="Rectangle_41" data-name="Rectangle 41" width="7.484" height="0.166" transform="translate(42.955 10.587) rotate(-45)" fill="#0af"/>
          <rect id="Rectangle_42" data-name="Rectangle 42" width="11.464" height="0.406" transform="translate(41.036 12.118) rotate(-45)" fill="#0af"/>
          <rect id="Rectangle_43" data-name="Rectangle 43" width="15.038" height="0.406" transform="translate(81.582 10.634) rotate(-45)" fill="#0af"/>
          <rect id="Rectangle_44" data-name="Rectangle 44" width="11.807" height="0.242" transform="matrix(0.707, -0.707, 0.707, 0.707, 79.523, 10.235)" fill="#0af"/>
          <rect id="Rectangle_45" data-name="Rectangle 45" width="7.484" height="0.268" transform="translate(45.901 9.907) rotate(-44.999)" fill="#0af"/>
          <rect id="Rectangle_46" data-name="Rectangle 46" width="8.175" height="0.128" transform="translate(42.919 12.82) rotate(-45)" fill="#0af"/>
          <rect id="Rectangle_47" data-name="Rectangle 47" width="7.484" height="0.124" transform="translate(40.578 10.859) rotate(-45)" fill="#0af"/>
          <rect id="Rectangle_48" data-name="Rectangle 48" width="15.038" height="0.101" transform="translate(78.183 11.914) rotate(-45)" fill="#0af"/>
          <rect id="Rectangle_49" data-name="Rectangle 49" width="11.807" height="0.22" transform="matrix(0.707, -0.707, 0.707, 0.707, 74.936, 11.516)" fill="#0af"/>
          <rect id="Rectangle_50" data-name="Rectangle 50" width="8.137" height="0.105" transform="translate(62.458 13.643) rotate(-45)" fill="#0af"/>
          <rect id="Rectangle_51" data-name="Rectangle 51" width="6.389" height="0.184" transform="translate(70.44 10.31) rotate(-45)" fill="#0af"/>
          <rect id="Rectangle_52" data-name="Rectangle 52" width="6.389" height="0.084" transform="translate(69.474 11.316) rotate(-44.999)" fill="#0af"/>
          <rect id="Rectangle_53" data-name="Rectangle 53" width="8.137" height="0.148" transform="translate(66.499 12.002) rotate(-45)" fill="#0af"/>
          <rect id="Rectangle_54" data-name="Rectangle 54" width="8.137" height="0.242" transform="translate(65.82 12.597) rotate(-45)" fill="#0af"/>
          <rect id="Rectangle_55" data-name="Rectangle 55" width="8.137" height="0.101" transform="matrix(0.707, -0.707, 0.707, 0.707, 66.675, 12.222)" fill="#0af"/>
          <rect id="Rectangle_56" data-name="Rectangle 56" width="8.137" height="0.22" transform="matrix(0.707, -0.707, 0.707, 0.707, 61.331, 12.966)" fill="#0af"/>
          <rect id="Rectangle_57" data-name="Rectangle 57" width="11.845" height="0.105" transform="translate(54.659 13.671) rotate(-45)" fill="#0af"/>
          <rect id="Rectangle_58" data-name="Rectangle 58" width="11.845" height="0.184" transform="translate(59.823 12.851) rotate(-45)" fill="#0af"/>
          <rect id="Rectangle_59" data-name="Rectangle 59" width="11.845" height="0.084" transform="translate(57.908 14.621) rotate(-45)" fill="#0af"/>
          <rect id="Rectangle_60" data-name="Rectangle 60" width="11.845" height="0.148" transform="translate(60.113 10.903) rotate(-44.999)" fill="#0af"/>
          <rect id="Rectangle_61" data-name="Rectangle 61" width="11.845" height="0.242" transform="translate(56.693 12.83) rotate(-45)" fill="#0af"/>
          <rect id="Rectangle_62" data-name="Rectangle 62" width="11.845" height="0.101" transform="translate(60.27 11.139) rotate(-45)" fill="#0af"/>
          <rect id="Rectangle_63" data-name="Rectangle 63" width="11.845" height="0.22" transform="translate(53.452 13.053) rotate(-45)" fill="#0af"/>
          <rect id="Rectangle_64" data-name="Rectangle 64" width="11.845" height="0.105" transform="translate(61.806 11.942) rotate(-45)" fill="#0af"/>
          <rect id="Rectangle_65" data-name="Rectangle 65" width="8.137" height="0.184" transform="translate(64.049 13.147) rotate(-45)" fill="#0af"/>
          <rect id="Rectangle_66" data-name="Rectangle 66" width="8.137" height="0.084" transform="matrix(0.707, -0.707, 0.707, 0.707, 62.781, 14.398)" fill="#0af"/>
          <rect id="Rectangle_67" data-name="Rectangle 67" width="8.137" height="0.148" transform="matrix(0.707, -0.707, 0.707, 0.707, 63.919, 11.541)" fill="#0af"/>
          <rect id="Rectangle_68" data-name="Rectangle 68" width="8.137" height="0.242" transform="translate(63.24 12.136) rotate(-45)" fill="#0af"/>
          <rect id="Rectangle_69" data-name="Rectangle 69" width="8.137" height="0.101" transform="matrix(0.707, -0.707, 0.707, 0.707, 61.465, 14.235)" fill="#0af"/>
          <rect id="Rectangle_70" data-name="Rectangle 70" width="11.845" height="0.22" transform="translate(60.601 11.324) rotate(-45)" fill="#0af"/>
          <rect id="Rectangle_71" data-name="Rectangle 71" width="7.024" height="0.062" transform="translate(65.268 51.908) rotate(-45)" fill="#0af"/>
          <rect id="Rectangle_72" data-name="Rectangle 72" width="13.347" height="0.109" transform="translate(62.842 55.164) rotate(-45)" fill="#0af"/>
          <rect id="Rectangle_73" data-name="Rectangle 73" width="13.347" height="0.177" transform="translate(61.691 56.126) rotate(-45)" fill="#0af"/>
          <rect id="Rectangle_74" data-name="Rectangle 74" width="13.347" height="0.074" transform="translate(63.215 55.648) rotate(-45)" fill="#0af"/>
          <rect id="Rectangle_75" data-name="Rectangle 75" width="9.033" height="0.105" transform="translate(64.108 55.73) rotate(-45)" fill="#0af"/>
          <rect id="Rectangle_76" data-name="Rectangle 76" width="9.792" height="0.184" transform="translate(68.646 53.287) rotate(-45)" fill="#0af"/>
          <rect id="Rectangle_77" data-name="Rectangle 77" width="9.033" height="0.084" transform="translate(65.399 54.89) rotate(-45)" fill="#0af"/>
          <rect id="Rectangle_78" data-name="Rectangle 78" width="8.113" height="0.148" transform="translate(67.778 52.422) rotate(-44.999)" fill="#0af"/>
          <rect id="Rectangle_79" data-name="Rectangle 79" width="8.113" height="0.242" transform="translate(67.101 53.016) rotate(-45)" fill="#0af"/>
          <rect id="Rectangle_80" data-name="Rectangle 80" width="8.113" height="0.101" transform="matrix(0.707, -0.707, 0.707, 0.707, 67.954, 52.642)" fill="#0af"/>
          <rect id="Rectangle_81" data-name="Rectangle 81" width="9.033" height="0.161" transform="translate(67.226 52.768) rotate(-45)" fill="#0af"/>
          <rect id="Rectangle_82" data-name="Rectangle 82" width="7.184" height="0.282" transform="translate(83.812 11.792) rotate(-45)" fill="#0af"/>
          <rect id="Rectangle_83" data-name="Rectangle 83" width="9.515" height="0.138" transform="translate(83.948 13.925) rotate(-45)" fill="#0af"/>
          <rect id="Rectangle_84" data-name="Rectangle 84" width="10.959" height="0.305" transform="translate(85.469 8.823) rotate(-45)" fill="#0af"/>
          <rect id="Rectangle_85" data-name="Rectangle 85" width="9.515" height="0.19" transform="matrix(0.707, -0.707, 0.707, 0.707, 84.895, 13.88)" fill="#0af"/>
          <rect id="Rectangle_86" data-name="Rectangle 86" width="8.274" height="0.387" transform="translate(82.426 12.006) rotate(-45)" fill="#0af"/>
          <rect id="Rectangle_87" data-name="Rectangle 87" width="11.464" height="0.158" transform="translate(33.267 13.751) rotate(-45)" fill="#0af"/>
          <rect id="Rectangle_88" data-name="Rectangle 88" width="6.3" height="0.264" transform="translate(86.253 10.749) rotate(-44.999)" fill="#0af"/>
        </g>
        <g id="Group_6" data-name="Group 6" transform="translate(0 1.929)">
          <rect id="Rectangle_100" data-name="Rectangle 100" width="9.9" height="0.075" transform="translate(20.498 55.099) rotate(-45)" fill="#f50000"/>
          <rect id="Rectangle_101" data-name="Rectangle 101" width="9.9" height="0.128" transform="translate(22.417 54.617) rotate(-45)" fill="#f50000"/>
          <rect id="Rectangle_102" data-name="Rectangle 102" width="20.096" height="0.053" transform="translate(15.698 58.929) rotate(-45)" fill="#f50000"/>
          <path id="Path_35" data-name="Path 35" d="M127.184,69.167l-14.21,14.21-.037-.037,14.21-14.21Z" transform="translate(-99.543 -19.529)" fill="#f50000"/>
          <rect id="Rectangle_103" data-name="Rectangle 103" width="13.643" height="0.154" transform="translate(23.317 53.092) rotate(-45)" fill="#f50000"/>
          <rect id="Rectangle_104" data-name="Rectangle 104" width="13.643" height="0.144" transform="translate(20.008 56.057) rotate(-45)" fill="#f50000"/>
          <rect id="Rectangle_105" data-name="Rectangle 105" width="9.9" height="0.128" transform="translate(21.512 53.493) rotate(-45)" fill="#f50000"/>
          <rect id="Rectangle_106" data-name="Rectangle 106" width="9.9" height="0.075" transform="translate(17.288 58.858) rotate(-45)" fill="#f50000"/>
          <rect id="Rectangle_107" data-name="Rectangle 107" width="9.9" height="0.128" transform="translate(19.208 58.376) rotate(-45)" fill="#f50000"/>
          <rect id="Rectangle_108" data-name="Rectangle 108" width="20.096" height="0.053" transform="translate(12.488 62.688) rotate(-45)" fill="#f50000"/>
          <rect id="Rectangle_109" data-name="Rectangle 109" width="7.911" height="0.053" transform="translate(27.134 50.561) rotate(-45.001)" fill="#f50000"/>
          <rect id="Rectangle_110" data-name="Rectangle 110" width="3.898" height="0.128" transform="translate(29.538 48.536) rotate(-45)" fill="#f50000"/>
          <rect id="Rectangle_111" data-name="Rectangle 111" width="6.37" height="0.051" transform="translate(48.302 7.48) rotate(-45.001)" fill="#dec385"/>
          <rect id="Rectangle_112" data-name="Rectangle 112" width="6.37" height="0.088" transform="translate(49.569 7.202) rotate(-45)" fill="#dec385"/>
          <path id="Path_36" data-name="Path 36" d="M153.9,20.335l-9.142,9.142-.026-.026,9.143-9.142Z" transform="translate(-99.543 -19.529)" fill="#dec385"/>
          <rect id="Rectangle_113" data-name="Rectangle 113" width="12.929" height="0.036" transform="translate(43.767 13.121) rotate(-45)" fill="#dec385"/>
          <rect id="Rectangle_114" data-name="Rectangle 114" width="8.778" height="0.106" transform="translate(50.134 6.207) rotate(-45)" fill="#dec385"/>
          <rect id="Rectangle_115" data-name="Rectangle 115" width="8.778" height="0.099" transform="matrix(0.707, -0.707, 0.707, 0.707, 47.997, 8.107)" fill="#dec385"/>
          <rect id="Rectangle_116" data-name="Rectangle 116" width="6.37" height="0.088" transform="translate(48.942 6.434) rotate(-45)" fill="#dec385"/>
          <rect id="Rectangle_117" data-name="Rectangle 117" width="6.37" height="0.052" transform="translate(46.249 9.911) rotate(-45.001)" fill="#dec385"/>
          <rect id="Rectangle_118" data-name="Rectangle 118" width="6.37" height="0.088" transform="translate(47.516 9.633) rotate(-45)" fill="#dec385"/>
          <rect id="Rectangle_119" data-name="Rectangle 119" width="12.929" height="0.036" transform="translate(43.14 12.353) rotate(-45)" fill="#dec385"/>
          <rect id="Rectangle_120" data-name="Rectangle 120" width="9.05" height="0.088" transform="translate(7.376 44.131) rotate(-45)" fill="#dec385"/>
          <rect id="Rectangle_121" data-name="Rectangle 121" width="9.05" height="0.15" transform="translate(9.316 43.876) rotate(-45)" fill="#dec385"/>
          <rect id="Rectangle_122" data-name="Rectangle 122" width="18.37" height="0.062" transform="translate(2.863 47.507) rotate(-45)" fill="#dec385"/>
          <rect id="Rectangle_123" data-name="Rectangle 123" width="18.37" height="0.062" transform="translate(1.089 52.302) rotate(-45)" fill="#dec385"/>
          <rect id="Rectangle_124" data-name="Rectangle 124" width="12.471" height="0.181" transform="translate(10.057 42.401) rotate(-45)" fill="#dec385"/>
          <rect id="Rectangle_125" data-name="Rectangle 125" width="12.471" height="0.169" transform="translate(6.988 45.067) rotate(-45)" fill="#dec385"/>
          <rect id="Rectangle_126" data-name="Rectangle 126" width="9.05" height="0.15" transform="translate(8.227 42.588) rotate(-45)" fill="#dec385"/>
          <rect id="Rectangle_127" data-name="Rectangle 127" width="9.05" height="0.088" transform="translate(4.512 47.638) rotate(-45)" fill="#dec385"/>
          <rect id="Rectangle_128" data-name="Rectangle 128" width="9.05" height="0.15" transform="matrix(0.707, -0.707, 0.707, 0.707, 6.452, 47.383)" fill="#dec385"/>
          <path id="Path_37" data-name="Path 37" d="M112.575,57.6,99.586,70.586l-.044-.044,12.989-12.989Z" transform="translate(-99.543 -19.529)" fill="#dec385"/>
        </g>
      </g>
      <g id="Group_8" data-name="Group 8" transform="translate(26.203 6.801)">
        <path id="Path_39" data-name="Path 39" d="M165.365,65.186,161.054,69.5h.248l4.311-4.311Z" transform="translate(-93.845 -24.4)" fill="#0af"/>
        <path id="Path_42" data-name="Path 42" d="M118.1,65.186,113.787,69.5h.654l4.311-4.311Z" transform="translate(-112.849 -24.4)" fill="#0af"/>
        <path id="Path_43" data-name="Path 43" d="M117.16,49.465l-4.311,4.311v.7l4.311-4.311Z" transform="translate(-112.849 -24.4)" fill="#0af"/>
        <path id="Path_44" data-name="Path 44" d="M142.131,29.958l4.311-4.311h-1.155l-4.311,4.311Z" transform="translate(-101.6 -24.4)" fill="#0af"/>
        <path id="Path_45" data-name="Path 45" d="M144.49,25.647h-.853l-4.311,4.311h.853Z" transform="translate(-102.31 -24.4)" fill="#0af"/>
        <path id="Path_46" data-name="Path 46" d="M117.16,62.57v-.631l-3.65,3.65.264.264-.925.925v.649l4.311-4.311Z" transform="translate(-112.849 -24.4)" fill="#0af"/>
        <path id="Path_47" data-name="Path 47" d="M165.776,29.958l4.311-4.311h-.317l-4.311,4.311Z" transform="translate(-92.085 -24.4)" fill="#0af"/>
        <path id="Path_48" data-name="Path 48" d="M117.16,63.174,113.436,66.9l.159.159,3.565-3.565Z" transform="translate(-112.849 -24.4)" fill="#0af"/>
        <path id="Path_49" data-name="Path 49" d="M164.224,29.958H165.4l4.311-4.311.819-.819-.273-.274-.051-.051-1.144,1.144h-.738l-4.311,4.311Z" transform="translate(-92.036 -24.4)" fill="#0af"/>
        <path id="Path_50" data-name="Path 50" d="M174.3,25.647h-.81l-4.311,4.311h.933l4.311-4.311Z" transform="translate(-87.802 -24.4)" fill="#0af"/>
        <path id="Path_51" data-name="Path 51" d="M119.679,65.186h-.81L114.558,69.5h.933l4.311-4.311Z" transform="translate(-112.849 -24.4)" fill="#0af"/>
        <path id="Path_52" data-name="Path 52" d="M139.764,25.647l-4.311,4.311h.933l4.311-4.311Z" transform="translate(-103.84 -24.4)" fill="#0af"/>
        <path id="Path_53" data-name="Path 53" d="M179.689,27.6l-4.311,4.311v.556l4.311-4.311Z" transform="translate(-87.802 -24.4)" fill="#0af"/>
        <path id="Path_54" data-name="Path 54" d="M125.564,65.186,121.253,69.5h.2l4.311-4.311h-.2Z" transform="translate(-112.849 -24.4)" fill="#0af"/>
        <path id="Path_55" data-name="Path 55" d="M121.874,65.186,117.563,69.5h.3l4.311-4.311Z" transform="translate(-112.849 -24.4)" fill="#0af"/>
        <path id="Path_56" data-name="Path 56" d="M120.859,65.186,116.548,69.5h.285l4.311-4.311Z" transform="translate(-112.849 -24.4)" fill="#0af"/>
        <path id="Path_57" data-name="Path 57" d="M163.246,29.958l3.865-3.865-.182-.182-4.047,4.047Z" transform="translate(-93.226 -24.4)" fill="#0af"/>
        <path id="Path_58" data-name="Path 58" d="M117.16,60.6l-4.311,4.311v.364l4.311-4.311Z" transform="translate(-112.849 -24.4)" fill="#0af"/>
        <path id="Path_59" data-name="Path 59" d="M161.431,29.958l4.311-4.311.666-.666-.182-.182-.848.848-4.311,4.311Z" transform="translate(-93.602 -24.4)" fill="#0af"/>
        <path id="Path_60" data-name="Path 60" d="M117.16,58.782l-4.311,4.311v.364l4.311-4.311Z" transform="translate(-112.849 -24.4)" fill="#0af"/>
        <path id="Path_61" data-name="Path 61" d="M180.312,24.7l-.246-.246-.057-.057-1.247,1.247h-.777l-4.311,4.311h1.383l4.311-4.311Z" transform="translate(-87.802 -24.4)" fill="#0af"/>
        <path id="Path_62" data-name="Path 62" d="M124.254,65.186h-1.338L118.606,69.5h1.224l-.961.96.057.057.246.246,1.264-1.263,4.311-4.311Z" transform="translate(-112.849 -24.4)" fill="#0af"/>
        <path id="Path_64" data-name="Path 64" d="M166.158,65.186,161.847,69.5h.649l4.311-4.311Z" transform="translate(-93.409 -24.4)" fill="#0af"/>
        <path id="Path_66" data-name="Path 66" d="M162.553,69.5h.317l4.311-4.311h-.317Z" transform="translate(-93.232 -24.4)" fill="#0af"/>
      </g>
      <g id="Group_10" data-name="Group 10" transform="translate(31.705 8.047)">
        <path id="Path_70" data-name="Path 70" d="M145.474,26.235l-3.135,3.135h-6.567l3.135-3.135Zm1.419-.588h-8.229l-4.311,4.311h8.23l4.31-4.311Z" transform="translate(-96.371 -25.647)" fill="#00b7ff"/>
        <path id="Path_71" data-name="Path 71" d="M179.1,26.235v2.307l-3.136,3.135V29.37h-26.3l3.135-3.135Zm.587-.588H152.561l-4.311,4.311h27.129V33.1l4.31-4.311V25.647Z" transform="translate(-71.239 -25.647)" fill="#00b7ff"/>
        <path id="Path_72" data-name="Path 72" d="M179.1,45.869v7.136l-3.136,3.136V49l3.136-3.135Zm.587-1.42-4.31,4.311v8.8l4.31-4.311v-8.8Z" transform="translate(-71.239 -25.647)" fill="#00b7ff"/>
        <path id="Path_73" data-name="Path 73" d="M166.333,65.774,163.2,68.909h-1.034l3.136-3.135Zm1.419-.588h-2.7L160.745,69.5h2.7l4.311-4.311Z" transform="translate(-79.541 -25.647)" fill="#00b7ff"/>
        <path id="Path_74" data-name="Path 74" d="M116.572,59.98v5.794h7.768l-3.135,3.135h-7.768V63.115l3.135-3.135Zm.588-1.42-4.311,4.311V69.5h8.6l4.311-4.311h-8.6V58.56Z" transform="translate(-112.849 -25.647)" fill="#00b7ff"/>
        <g id="Group_9" data-name="Group 9" transform="translate(20.183 39.539)">
          <path id="Path_75" data-name="Path 75" d="M130.527,65.774l-3.135,3.135h-1.236l3.136-3.135Zm1.419-.588h-2.9L124.737,69.5h2.9l4.311-4.311Z" transform="translate(-124.737 -65.186)" fill="#f50000"/>
        </g>
        <path id="Path_76" data-name="Path 76" d="M116.572,48.57v2.078l-3.135,3.136V51.705l3.135-3.135Zm.588-1.419-4.311,4.311V55.2l4.311-4.311V47.151Z" transform="translate(-112.849 -25.647)" fill="#00b7ff"/>
      </g>
    </g>
  </g>
  <path id="Path_77" data-name="Path 77" d="M6.33-8.025a1.666,1.666,0,0,0-.773-.532,2.769,2.769,0,0,0-.923-.173,2.417,2.417,0,0,0-.525.06,2.012,2.012,0,0,0-.51.188,1.112,1.112,0,0,0-.39.338.854.854,0,0,0-.15.51.845.845,0,0,0,.36.735,3.409,3.409,0,0,0,.908.435q.547.18,1.177.36a4.852,4.852,0,0,1,1.177.51,2.788,2.788,0,0,1,.907.885,2.7,2.7,0,0,1,.36,1.485A3.414,3.414,0,0,1,7.62-1.68a3.135,3.135,0,0,1-.893,1.1,3.8,3.8,0,0,1-1.3.645A5.734,5.734,0,0,1,3.855.27a5.686,5.686,0,0,1-1.92-.315,4.811,4.811,0,0,1-1.65-1.02L1.95-2.895a2.431,2.431,0,0,0,.908.743A2.591,2.591,0,0,0,3.99-1.89a2.562,2.562,0,0,0,.578-.068,1.881,1.881,0,0,0,.525-.2A1.132,1.132,0,0,0,5.467-2.5.86.86,0,0,0,5.61-3a.9.9,0,0,0-.368-.757A3.387,3.387,0,0,0,4.32-4.23q-.555-.195-1.2-.39a5.389,5.389,0,0,1-1.2-.525A2.892,2.892,0,0,1,1-6.015,2.489,2.489,0,0,1,.63-7.44a3.19,3.19,0,0,1,.337-1.5,3.254,3.254,0,0,1,.9-1.08,3.913,3.913,0,0,1,1.3-.653A5.311,5.311,0,0,1,4.68-10.89a5.957,5.957,0,0,1,1.74.255,4.013,4.013,0,0,1,1.515.855Zm4.38-2.595h2.34V0H10.71Zm5.61,0h2.34v8.46h4.335V0H16.32Zm9.1,0h2.34v8.46H32.1V0H25.425Zm9.96,6.09L31.4-10.62h2.91l2.25,3.975L38.94-10.62h2.775l-3.99,6.09V0h-2.34Z" transform="translate(35.856 26.4)" stroke="#000" stroke-width="1.2"/>
  <path id="Path_78" data-name="Path 78" d="M1.17-10.62H8.3v2.16H3.51V-6.3H7.935v2.16H3.51V0H1.17Zm9.285,5.31a6,6,0,0,1,.427-2.31,5.066,5.066,0,0,1,1.193-1.763A5.254,5.254,0,0,1,13.89-10.5a6.543,6.543,0,0,1,2.3-.39,6.543,6.543,0,0,1,2.3.39A5.254,5.254,0,0,1,20.3-9.383,5.066,5.066,0,0,1,21.487-7.62a6,6,0,0,1,.427,2.31A6,6,0,0,1,21.487-3,5.066,5.066,0,0,1,20.3-1.238,5.254,5.254,0,0,1,18.48-.12a6.543,6.543,0,0,1-2.3.39,6.543,6.543,0,0,1-2.3-.39,5.254,5.254,0,0,1-1.815-1.118A5.066,5.066,0,0,1,10.882-3,6,6,0,0,1,10.455-5.31Zm2.43,0a3.9,3.9,0,0,0,.233,1.373,3.144,3.144,0,0,0,.667,1.08,3.047,3.047,0,0,0,1.042.713,3.475,3.475,0,0,0,1.358.255,3.475,3.475,0,0,0,1.358-.255,3.047,3.047,0,0,0,1.042-.713,3.144,3.144,0,0,0,.668-1.08,3.9,3.9,0,0,0,.233-1.373,3.913,3.913,0,0,0-.233-1.365,3.13,3.13,0,0,0-.668-1.088,3.047,3.047,0,0,0-1.042-.713,3.475,3.475,0,0,0-1.358-.255,3.475,3.475,0,0,0-1.358.255,3.047,3.047,0,0,0-1.042.713,3.13,3.13,0,0,0-.667,1.088A3.913,3.913,0,0,0,12.885-5.31Zm11.1,0a6,6,0,0,1,.427-2.31A5.066,5.066,0,0,1,25.6-9.383,5.254,5.254,0,0,1,27.42-10.5a6.543,6.543,0,0,1,2.3-.39,6.543,6.543,0,0,1,2.3.39,5.254,5.254,0,0,1,1.815,1.117A5.066,5.066,0,0,1,35.018-7.62a6,6,0,0,1,.427,2.31A6,6,0,0,1,35.018-3a5.066,5.066,0,0,1-1.193,1.762A5.254,5.254,0,0,1,32.01-.12a6.543,6.543,0,0,1-2.3.39,6.543,6.543,0,0,1-2.3-.39A5.254,5.254,0,0,1,25.6-1.238,5.066,5.066,0,0,1,24.413-3,6,6,0,0,1,23.985-5.31Zm2.43,0a3.9,3.9,0,0,0,.233,1.373,3.144,3.144,0,0,0,.667,1.08,3.047,3.047,0,0,0,1.042.713,3.475,3.475,0,0,0,1.358.255,3.475,3.475,0,0,0,1.358-.255,3.047,3.047,0,0,0,1.042-.713,3.144,3.144,0,0,0,.668-1.08,3.9,3.9,0,0,0,.232-1.373,3.913,3.913,0,0,0-.232-1.365,3.13,3.13,0,0,0-.668-1.088,3.047,3.047,0,0,0-1.042-.713,3.475,3.475,0,0,0-1.358-.255,3.475,3.475,0,0,0-1.358.255,3.047,3.047,0,0,0-1.042.713,3.13,3.13,0,0,0-.667,1.088A3.913,3.913,0,0,0,26.415-5.31ZM40.14-8.55H37.11v-2.07h8.4v2.07H42.48V0H40.14Zm7.605-2.07h3.96a10.012,10.012,0,0,1,1.387.1,3.79,3.79,0,0,1,1.253.39,2.4,2.4,0,0,1,.9.818A2.506,2.506,0,0,1,55.59-7.92a2.227,2.227,0,0,1-.5,1.493,2.763,2.763,0,0,1-1.327.847v.03a3.03,3.03,0,0,1,.952.293,2.544,2.544,0,0,1,.735.555,2.364,2.364,0,0,1,.472.787,2.767,2.767,0,0,1,.165.96,2.553,2.553,0,0,1-.36,1.4,2.83,2.83,0,0,1-.93.907,4.078,4.078,0,0,1-1.283.5A6.865,6.865,0,0,1,52.1,0h-4.35Zm2.34,4.245H51.78a2.382,2.382,0,0,0,.533-.06,1.473,1.473,0,0,0,.472-.2,1.015,1.015,0,0,0,.338-.36,1.079,1.079,0,0,0,.127-.54.98.98,0,0,0-.142-.548.991.991,0,0,0-.368-.337,1.751,1.751,0,0,0-.51-.172,3.061,3.061,0,0,0-.555-.052h-1.59Zm0,4.395h2.1a2.585,2.585,0,0,0,.548-.06,1.449,1.449,0,0,0,.5-.21,1.194,1.194,0,0,0,.368-.39,1.127,1.127,0,0,0,.143-.585.938.938,0,0,0-.187-.607,1.189,1.189,0,0,0-.473-.353,2.42,2.42,0,0,0-.615-.165,4.569,4.569,0,0,0-.615-.045h-1.77ZM62.01-10.62h1.935L68.565,0h-2.64L65.01-2.25H60.885L60,0H57.42Zm.9,3.09-1.29,3.3h2.6Zm7.86-3.09h2.34v8.46h4.335V0H70.77Zm9.105,0h2.34v8.46H86.55V0H79.875Z" transform="translate(37.856 43.4)" stroke="#000" stroke-width="1.2"/>
</svg>
