<svg xmlns="http://www.w3.org/2000/svg" width="35" height="35" viewBox="0 0 50.342 50.335">
  <g id="Component_1_1" data-name="Component 1 – 1" transform="translate(0.53)">
    <g id="Group_24" data-name="Group 24" transform="translate(-0.188)">
      <g id="Group_4" data-name="Group 4" transform="translate(12.687)">
        <path id="Path_10" data-name="Path 10" d="M402.482,140.178a.472.472,0,0,1-.359-.165c-.349-.406-.717-.8-1.1-1.181a21.118,21.118,0,0,0-28.964-.875.473.473,0,1,1-.628-.708,22.067,22.067,0,0,1,30.261.914c.395.394.779.809,1.144,1.234a.473.473,0,0,1-.359.782Z" transform="translate(-370.852 -131.695)"/>
        <path id="Path_11" data-name="Path 11" d="M700.975,261.448a.473.473,0,0,1-.352-.79,21.106,21.106,0,0,0,1.746-26.03.473.473,0,1,1,.781-.534,22.056,22.056,0,0,1-1.823,27.2A.473.473,0,0,1,700.975,261.448Z" transform="translate(-669.671 -224.451)"/>
        <path id="Path_12" data-name="Path 12" d="M452.08,304.047a.473.473,0,0,1-.378-.188c-1.71-2.269-3.5-4.724-5.184-7.1a.473.473,0,0,1,0-.546c1.682-2.377,3.475-4.833,5.184-7.1a.473.473,0,0,1,.518-.167c2.815.874,5.677,1.828,8.276,2.759a.473.473,0,0,1,.313.435c.061,2.843.061,5.849,0,8.693a.473.473,0,0,1-.313.435c-2.6.93-5.459,1.885-8.276,2.759A.471.471,0,0,1,452.08,304.047Zm-4.6-7.562c1.554,2.19,3.2,4.439,4.773,6.538,2.59-.809,5.209-1.682,7.613-2.538.051-2.625.051-5.376,0-8-2.406-.856-5.024-1.729-7.613-2.538C450.68,292.045,449.038,294.294,447.484,296.485Z" transform="translate(-439.065 -274.404)"/>
        <path id="Path_13" data-name="Path 13" d="M408.377,141.521a.472.472,0,0,1-.1-.011c-2.375-.52-4.669-.921-6.817-1.193a.473.473,0,0,1-.4-.577,12.066,12.066,0,0,1,1.229-3.389.472.472,0,0,1,.177-.17,21.876,21.876,0,0,1,7.784-2.544.472.472,0,0,1,.245.034,12.572,12.572,0,0,1,2.9,1.888.473.473,0,0,1,.032.7c-1.539,1.522-3.116,3.235-4.686,5.092A.473.473,0,0,1,408.377,141.521Zm-6.273-2.074c1.938.261,3.984.623,6.1,1.078,1.4-1.646,2.8-3.177,4.184-4.563a11.017,11.017,0,0,0-2.145-1.37,20.928,20.928,0,0,0-7.206,2.355A10.556,10.556,0,0,0,402.1,139.447Z" transform="translate(-397.87 -133.454)"/>
        <path id="Path_14" data-name="Path 14" d="M478.292,217.149a.474.474,0,0,1-.448-.321l-2.508-7.4a.473.473,0,1,1,.9-.3l2.508,7.4a.473.473,0,0,1-.448.625Z" transform="translate(-465.277 -201.684)"/>
        <path id="Path_15" data-name="Path 15" d="M652.654,440.705a.478.478,0,0,1-.078-.006.473.473,0,0,1-.39-.544c.287-1.74.524-3.585.705-5.482a.473.473,0,0,1,.291-.392c2.248-.927,4.361-1.905,6.281-2.906a.473.473,0,0,1,.658.245,12.535,12.535,0,0,1,.914,3.347.473.473,0,0,1-.943.084,10.545,10.545,0,0,0-.663-2.594c-1.741.89-3.629,1.759-5.623,2.589-.179,1.819-.41,3.589-.686,5.263A.473.473,0,0,1,652.654,440.705Z" transform="translate(-625.812 -403.652)"/>
        <path id="Path_16" data-name="Path 16" d="M596.581,416.728a.471.471,0,0,1-.281-.093l-4.235-3.135a.473.473,0,1,1,.563-.761l4.235,3.135a.473.473,0,0,1-.282.854Z" transform="translate(-571.075 -386.703)"/>
        <path id="Path_17" data-name="Path 17" d="M728.76,269.4a.473.473,0,0,1-.44-.648,11.635,11.635,0,0,0,.85-3.083.473.473,0,0,1,.943.084,12.531,12.531,0,0,1-.913,3.347A.473.473,0,0,1,728.76,269.4Z" transform="translate(-694.89 -252.911)"/>
        <path id="Path_18" data-name="Path 18" d="M653.428,194.123a.48.48,0,0,1-.1-.012,11.387,11.387,0,0,0-3.26-.1.473.473,0,1,1-.077-.943,12.287,12.287,0,0,1,3.544.12.473.473,0,0,1-.1.935Z" transform="translate(-623.427 -187.34)"/>
        <path id="Path_19" data-name="Path 19" d="M655.337,203.5a.471.471,0,0,1-.2-.047c-1.377-.663-2.835-1.313-4.335-1.931a.473.473,0,0,1-.291-.392c-.231-2.421-.549-4.727-.946-6.855a.473.473,0,0,1,.93-.173c.387,2.072.7,4.31.931,6.655,1.424.593,2.81,1.213,4.122,1.845a.473.473,0,0,1-.206.9Z" transform="translate(-623.427 -187.984)"/>
        <path id="Path_20" data-name="Path 20" d="M592.346,273.992a.473.473,0,0,1-.282-.854l6.279-4.648a.473.473,0,0,1,.563.761l-.031.023-6.249,4.626A.471.471,0,0,1,592.346,273.992Z" transform="translate(-571.075 -255.774)"/>
        <path id="Path_21" data-name="Path 21" d="M728.761,313.127a.473.473,0,0,1-.442-.641,20.823,20.823,0,0,0,0-11.785.473.473,0,0,1,.885-.336,21.707,21.707,0,0,1,0,12.457A.473.473,0,0,1,728.761,313.127Z" transform="translate(-694.89 -284.511)"/>
        <path id="Path_22" data-name="Path 22" d="M538.216,157.959a.471.471,0,0,1-.308-.115h0a16.359,16.359,0,0,0-5.178-2.6,18.4,18.4,0,0,0-5.868-1.011.473.473,0,0,1-.046-.945,18.95,18.95,0,0,1,6.207,1.057,16.92,16.92,0,0,1,5.5,2.787.473.473,0,0,1-.309.831Z" transform="translate(-511.618 -151.286)"/>
        <path id="Path_23" data-name="Path 23" d="M367.15,199.7a.473.473,0,0,1-.363-.776,13.679,13.679,0,0,1,3.3-3.061.473.473,0,0,1,.467.823,13.142,13.142,0,0,0-3.044,2.843A.472.472,0,0,1,367.15,199.7Z" transform="translate(-366.677 -189.886)"/>
      </g>
      <g id="Group_14" data-name="Group 14" transform="translate(0 7.89)">
        <path id="Path_24" data-name="Path 24" d="M9,0,6.75,2.25,0,9" transform="translate(3.188 -1.085)" fill="#f80505" stroke="red" stroke-width="1.5"/>
        <path id="Path_25" data-name="Path 25" d="M0,9" transform="translate(3.188 2.915)" fill="none" stroke="red" stroke-width="1.5"/>
        <line id="Line_3" data-name="Line 3" x1="12" y2="12" transform="translate(4.188 1.915)" fill="none" stroke="red" stroke-width="1.5"/>
        <line id="Line_4" data-name="Line 4" x1="18" y2="18" transform="translate(3.188 2.915)" fill="none" stroke="red" stroke-width="1.5"/>
        <line id="Line_6" data-name="Line 6" x1="18" y2="18" transform="translate(3.188 8.915)" fill="none" stroke="red" stroke-width="1.5"/>
        <line id="Line_7" data-name="Line 7" x1="18" y2="18" transform="translate(2.188 15.915)" fill="none" stroke="red" stroke-width="1.5"/>
        <line id="Line_9" data-name="Line 9" x1="22" y2="22" transform="translate(0.188 19.915)" fill="none" stroke="red" stroke-width="1.5"/>
        <line id="Line_10" data-name="Line 10" x1="11" y2="11" transform="translate(13.188 22.915)" fill="none" stroke="red" stroke-width="1.5"/>
        <line id="Line_12" data-name="Line 12" x1="14" y2="14" transform="translate(15.188 22.915)" fill="none" stroke="red" stroke-width="1.5"/>
        <line id="Line_13" data-name="Line 13" x1="16" y2="16" transform="translate(20.188 21.915)" fill="none" stroke="red" stroke-width="1.5"/>
        <line id="Line_15" data-name="Line 15" x1="13" y2="13" transform="translate(24.188 26.915)" fill="none" stroke="red" stroke-width="1.5"/>
        <line id="Line_16" data-name="Line 16" x1="5" y2="5" transform="translate(35.188 31.915)" fill="none" stroke="red" stroke-width="1.5"/>
      </g>
    </g>
  </g>
</svg>
