<svg id="Component_24_1" data-name="Component 24 – 1" xmlns="http://www.w3.org/2000/svg" width="100%" height="100%" viewBox="0 0 1138.27 84.87">
  <path id="Path_55" data-name="Path 55" d="M44.275,2.185c20.815,0,37.03-5.06,37.03-28.06,0-19.665-19.665-21.735-27.37-23.575S37.72-53.015,37.72-57.04c0-3.1,2.3-4.37,5.865-4.37,3.8,0,6.9,2.185,6.9,6.325h28.4c0-21.16-18.63-27.6-35.19-27.6-13.11,0-37.145,1.265-37.145,27.83,0,13.225,8.28,18.63,27.255,23.92,8.97,2.53,14.03,3.22,14.03,7.015,0,2.53-2.07,3.91-6.325,3.91-4.025,0-9.085-1.725-9.085-7.13H3.45C3.45-14.145,14.03,2.185,44.275,2.185ZM146.05-53.13V-80.5H89.93v27.37h12.765v25.76H89.93V0h56.12V-27.37H133.285V-53.13Zm41.055,25.76V-80.5H156.4V0h76.475V-27.37Zm85.1,0V-80.5H241.5V0h76.475V-27.37ZM400.775-80.5h-32.89l-10.12,28.98h-3.1L344.54-80.5H311.65l29.21,57.96V0h30.705V-22.54ZM480.93-54.165V-80.5H408.825V0h30.59V-23.805H474.26v-23H439.415v-7.36Zm55.085-28.52c-29.1,0-48.76,13.685-48.76,42.435,0,28.635,19.665,42.435,48.76,42.435s48.76-13.8,48.76-42.435C584.775-69,565.11-82.685,536.015-82.685Zm0,56c-9.66,0-15.41-5.29-15.41-13.57s5.75-13.685,15.41-13.685,15.41,5.405,15.41,13.685S545.675-26.68,536.015-26.68Zm104.42-56c-29.1,0-48.76,13.685-48.76,42.435,0,28.635,19.665,42.435,48.76,42.435s48.76-13.8,48.76-42.435C689.195-69,669.53-82.685,640.435-82.685Zm0,56c-9.66,0-15.41-5.29-15.41-13.57s5.75-13.685,15.41-13.685,15.41,5.405,15.41,13.685S650.095-26.68,640.435-26.68ZM778.78-80.5H694.945v27.37H721.51V0h30.7V-53.13H778.78Zm75.9,39.1v-.805c6.555-.805,12.42-7.935,12.42-17.71,0-14.835-8.74-20.585-27.255-20.585H787.4V0H842.03c18.285,0,27.025-7.245,27.025-21.965C869.055-31.74,863.3-39.9,854.68-41.4ZM815.925-60.835H830.3c3.91,0,7.015.69,7.015,4.715s-3.105,4.6-7.015,4.6H815.925Zm15.41,40.25h-15.87v-11.04h15.87c4.37,0,7.82.92,7.82,5.52C839.155-21.39,835.7-20.585,831.335-20.585ZM938.055,0h34.04L944.61-80.5H899.3L871.93,0h33.925l3.565-12.765H934.6Zm-22.08-36.8,4.37-16.33h3.22L928.05-36.8Zm94.875,9.43V-80.5H980.145V0h76.475V-27.37Zm85.1,0V-80.5h-30.7V0h76.475V-27.37Z" transform="translate(-3.45 82.685)" fill="#292929"/>
</svg>
