<svg id="Component_5_1" data-name="Component 5 – 1" xmlns="http://www.w3.org/2000/svg" width="814.16" height="98.591" viewBox="0 0 814.16 98.591">
  <g id="Group_9" data-name="Group 9" transform="translate(-102.122 -30.699)">
    <g id="Group_4" data-name="Group 4" transform="translate(105.357 30.699)">
      <path id="Path_3" data-name="Path 3" d="M140.572,44.814l-9.8-9.618-9.795,9.618-12.092-5.383,1.836,17.8h40.1l1.839-17.8Z" transform="translate(-105.357 -30.699)" fill="#67ffbf"/>
      <path id="Path_4" data-name="Path 4" d="M142.611,43.043,132.329,32.319l-1.553-1.62-1.552,1.62-10.28,10.725,2.487-.445-12.691-6L105.357,35l.349,3.6,1.927,19.846.178,1.832h45.928l.178-1.832,1.93-19.845.35-3.6-3.383,1.6-12.69,6Zm9.039-4.824-1.93,19.845,2.1-1.832H109.733l2.1,1.832L109.9,38.22l-3.033,2,12.691,6,1.418.671,1.069-1.115,10.28-10.725h-3.106L139.5,45.774l1.07,1.115,1.417-.671,12.691-6Z" transform="translate(-105.357 -30.699)" fill="#67ffbf"/>
    </g>
  </g>
  <path id="Path_15" data-name="Path 15" d="M32.4,1.44C46.8,1.44,59.68-2,59.68-18c0-13.68-13.68-15.2-19.04-16.4-5.36-1.28-14.4-2.16-14.4-5.36,0-2.16,2.24-3.04,5.68-3.04,3.36,0,6.32,1.6,6.32,4.48H58c0-14.72-14.48-19.2-26-19.2-9.12,0-27.44.88-27.44,19.28,0,9.28,5.76,13.04,18.96,16.72,6.24,1.68,12.88,2.24,12.88,4.8,0,1.84-1.84,2.8-5.92,2.8-3.6,0-7.92-1.2-7.92-5.04H2.4C2.4-9.84,11.28,1.44,32.4,1.44Zm73.92-38.4V-56H67.28v19.04h8.88v17.92H67.28V0h39.04V-19.04H97.44V-36.96Zm30.16,17.92V-56H115.12V0h53.2V-19.04Zm60.8,0V-56H175.92V0h53.2V-19.04ZM288.32-56H265.44L258.4-35.84h-2.16L249.2-56H226.32l20.32,40.32V0H268V-15.68Zm57.36,18.32V-56H295.52V0H316.8V-16.56h24.24v-16H316.8v-5.12ZM385.6-57.52c-20.24,0-33.92,9.52-33.92,29.52,0,19.92,13.68,29.52,33.92,29.52S419.52-8.08,419.52-28C419.52-48,405.84-57.52,385.6-57.52Zm0,38.96c-6.72,0-10.72-3.68-10.72-9.44s4-9.52,10.72-9.52,10.72,3.76,10.72,9.52S392.32-18.56,385.6-18.56Zm74.24-38.96C439.6-57.52,425.92-48,425.92-28c0,19.92,13.68,29.52,33.92,29.52S493.76-8.08,493.76-28C493.76-48,480.08-57.52,459.84-57.52Zm0,38.96c-6.72,0-10.72-3.68-10.72-9.44s4-9.52,10.72-9.52,10.72,3.76,10.72,9.52S466.56-18.56,459.84-18.56ZM557.68-56H499.36v19.04h18.48V0H539.2V-36.96h18.48Zm54.4,27.2v-.56c4.56-.56,8.64-5.52,8.64-12.32C620.72-52,614.64-56,601.76-56H565.28V0h38c12.72,0,18.8-5.04,18.8-15.28C622.08-22.08,618.08-27.76,612.08-28.8ZM585.12-42.32h10c2.72,0,4.88.48,4.88,3.28s-2.16,3.2-4.88,3.2h-10Zm10.72,28H584.8V-22h11.04c3.04,0,5.44.64,5.44,3.84C601.28-14.88,598.88-14.32,595.84-14.32ZM671.68,0h23.68L676.24-56H644.72L625.68,0h23.6l2.48-8.88h17.52ZM656.32-25.6l3.04-11.36h2.24l3.12,11.36Zm67.6,6.56V-56H702.56V0h53.2V-19.04Zm60.8,0V-56H763.36V0h53.2V-19.04Z" transform="translate(-2.4 97.071)" fill="#f0f0f0"/>
</svg>
