<svg id="Component_47_1" data-name="Component 47 – 1" xmlns="http://www.w3.org/2000/svg" width="573.045" height="84.87" viewBox="0 0 573.045 84.87">
  <path id="Path_76" data-name="Path 76" d="M73.6-59c-.69-21.045-21.85-23.69-34.615-23.69-16.1,0-33.235,7.59-33.235,28.52H33.58c0-4.6,1.15-6.785,4.83-6.785,2.76,0,4.255,1.38,4.255,4.255-.115,7.82-12.65,8.97-20.125,12.88C14.375-39.445,4.6-32.775,4.6-15.755V0h69V-23h-37.6C38.755-32.315,74.635-25.415,73.6-59ZM174-27.37V-80.5H143.29V0h76.475V-27.37ZM301.415,0h34.04L307.97-80.5H262.66L235.29,0h33.925l3.565-12.765h25.185Zm-22.08-36.8,4.37-16.33h3.22L291.41-36.8Zm150.88-43.7H346.38v27.37h26.565V0h30.7V-53.13h26.565ZM525.78-56.35V-80.5H452.64V0h73.14V-24.035H483.23v-5.29h39.215v-21.85H483.23V-56.35ZM575.46-29.9l2.185-50.6h-30.59l2.185,50.6Zm-13.11,3.335A14.307,14.307,0,0,0,547.975-12.19,14.38,14.38,0,0,0,562.35,2.185,14.38,14.38,0,0,0,576.725-12.19,14.307,14.307,0,0,0,562.35-26.565Z" transform="translate(-4.6 82.685)" fill="#292929"/>
</svg>
