<svg id="Component_36_1" data-name="Component 36 – 1" xmlns="http://www.w3.org/2000/svg" width="1265.575" height="84.87" viewBox="0 0 1265.575 84.87">
  <path id="Path_66" data-name="Path 66" d="M69.69-80.5,55.775-27.37H51.4L37.49-80.5H2.875L30.36,0H76.82l27.485-80.5Zm98.785,27.37V-80.5h-56.12v27.37H125.12v25.76H112.355V0h56.12V-27.37H155.71V-53.13Zm73.14-27.37v40.02h-1.84L216.085-80.5h-37.26V0H209.53V-41.055h1.84L236.21,0h36.11V-80.5Zm103.845,0v40.02h-1.84L319.93-80.5H282.67V0h30.705V-41.055h1.84L340.055,0h36.11V-80.5ZM469.315-49.68a39.209,39.209,0,0,0-19.55.805h-.8l.46-8.625h29.21v-23h-55.2l-2.185,47.84h23.92c7.13,0,8.625,1.955,8.625,6.555,0,4.37-1.38,6.555-4.255,6.555-3.68,0-4.83-2.53-4.83-7.13H416.99c0,20.93,17.02,28.865,33.12,28.865,16.445,0,32.085-5.52,34.73-26.91C486.335-36.915,480.24-47.035,469.315-49.68Zm56.465-33c-21.5,0-34.96,15.64-34.96,42.435S504.275,2.185,525.78,2.185c21.62,0,34.96-15.64,34.96-42.435S547.4-82.685,525.78-82.685Zm0,60.145c-5.865,0-8.28-6.785-8.28-17.71s2.415-17.71,8.28-17.71c5.98,0,8.28,6.785,8.28,17.71S531.76-22.54,525.78-22.54ZM602.6-82.685c-21.5,0-34.96,15.64-34.96,42.435S581.1,2.185,602.6,2.185c21.62,0,34.96-15.64,34.96-42.435S624.22-82.685,602.6-82.685Zm0,60.145c-5.865,0-8.28-6.785-8.28-17.71s2.415-17.71,8.28-17.71c5.98,0,8.28,6.785,8.28,17.71S608.58-22.54,602.6-22.54ZM734.85,0h33.925L746.12-41.4l19.435-39.1h-32.89L720.82-53.935H709.09V-80.5H678.385V0H709.09V-26.565h11.96Zm96.255,0h32.89l-14.95-27.715c6.785-4.83,10.12-12.535,10.12-23.23,0-19.78-11.385-29.555-34.845-29.555H776.825V0H807.53V-21.505h13.225ZM807.53-57.5h13.915c5.06,0,7.705,1.15,7.705,6.555,0,5.29-2.645,6.44-7.705,6.44H807.53Zm108.1-25.185c-29.1,0-48.76,13.685-48.76,42.435,0,28.635,19.665,42.435,48.76,42.435s48.76-13.8,48.76-42.435C964.39-69,944.725-82.685,915.63-82.685Zm0,56c-9.66,0-15.41-5.29-15.41-13.57s5.75-13.685,15.41-13.685,15.41,5.405,15.41,13.685S925.29-26.68,915.63-26.68ZM1035.805-80.5v40.02h-1.84l-23.69-40.02h-37.26V0h30.705V-41.055h1.84L1030.4,0h36.11V-80.5Zm88.09-2.185c-29.095,0-48.76,13.685-48.76,42.435,0,28.635,19.665,42.435,48.76,42.435s48.76-13.8,48.76-42.435C1172.655-69,1152.99-82.685,1123.9-82.685Zm0,56c-9.66,0-15.41-5.29-15.41-13.57s5.75-13.685,15.41-13.685,15.41,5.405,15.41,13.685S1133.555-26.68,1123.9-26.68ZM1235.56,0h32.89L1253.5-27.715c6.785-4.83,10.12-12.535,10.12-23.23,0-19.78-11.385-29.555-34.845-29.555H1181.28V0h30.7V-21.505h13.225Zm-23.575-57.5H1225.9c5.06,0,7.7,1.15,7.7,6.555,0,5.29-2.645,6.44-7.7,6.44h-13.915Z" transform="translate(-2.875 82.685)" fill="#f0f0f0"/>
</svg>
