<svg id="Component_35_1" data-name="Component 35 – 1" xmlns="http://www.w3.org/2000/svg" width="1259.02" height="84.87" viewBox="0 0 1259.02 84.87">
  <path id="Path_65" data-name="Path 65" d="M63.135-80.5,51.4-27.37h-2.07L37.6-80.5H2.875L28.175,0H72.45l25.3-80.5ZM161.92-53.13V-80.5H105.8v27.37h12.765v25.76H105.8V0h56.12V-27.37H149.155V-53.13ZM235.06-80.5v40.02h-1.84L209.53-80.5H172.27V0h30.705V-41.055h1.84L229.655,0h36.11V-80.5Zm103.845,0v40.02h-1.84L313.375-80.5h-37.26V0H306.82V-41.055h1.84L333.5,0h36.11V-80.5ZM462.76-49.68a39.209,39.209,0,0,0-19.55.805H442.4l.46-8.625h29.21v-23h-55.2L414.69-32.66h23.92c7.13,0,8.625,1.955,8.625,6.555,0,4.37-1.38,6.555-4.255,6.555-3.68,0-4.83-2.53-4.83-7.13H410.435c0,20.93,17.02,28.865,33.12,28.865,16.445,0,32.085-5.52,34.73-26.91C479.78-36.915,473.685-47.035,462.76-49.68Zm56.465-33c-21.5,0-34.96,15.64-34.96,42.435S497.72,2.185,519.225,2.185c21.62,0,34.96-15.64,34.96-42.435S540.845-82.685,519.225-82.685Zm0,60.145c-5.865,0-8.28-6.785-8.28-17.71s2.415-17.71,8.28-17.71c5.98,0,8.28,6.785,8.28,17.71S525.205-22.54,519.225-22.54Zm76.82-60.145c-21.5,0-34.96,15.64-34.96,42.435S574.54,2.185,596.045,2.185c21.62,0,34.96-15.64,34.96-42.435S617.665-82.685,596.045-82.685Zm0,60.145c-5.865,0-8.28-6.785-8.28-17.71s2.415-17.71,8.28-17.71c5.98,0,8.28,6.785,8.28,17.71S602.025-22.54,596.045-22.54ZM728.3,0H762.22L739.565-41.4,759-80.5H726.11L714.265-53.935h-11.73V-80.5H671.83V0h30.705V-26.565H714.5ZM824.55,0h32.89L842.49-27.715c6.785-4.83,10.12-12.535,10.12-23.23,0-19.78-11.385-29.555-34.845-29.555H770.27V0h30.705V-21.505H814.2ZM800.975-57.5H814.89c5.06,0,7.705,1.15,7.705,6.555,0,5.29-2.645,6.44-7.705,6.44H800.975Zm108.1-25.185c-29.1,0-48.76,13.685-48.76,42.435,0,28.635,19.665,42.435,48.76,42.435s48.76-13.8,48.76-42.435C957.835-69,938.17-82.685,909.075-82.685Zm0,56c-9.66,0-15.41-5.29-15.41-13.57s5.75-13.685,15.41-13.685,15.41,5.405,15.41,13.685S918.735-26.68,909.075-26.68ZM1029.25-80.5v40.02h-1.84L1003.72-80.5H966.46V0h30.705V-41.055h1.84L1023.845,0h36.11V-80.5Zm88.09-2.185c-29.095,0-48.76,13.685-48.76,42.435,0,28.635,19.665,42.435,48.76,42.435s48.76-13.8,48.76-42.435C1166.1-69,1146.435-82.685,1117.34-82.685Zm0,56c-9.66,0-15.41-5.29-15.41-13.57s5.75-13.685,15.41-13.685,15.41,5.405,15.41,13.685S1127-26.68,1117.34-26.68ZM1229.005,0h32.89l-14.95-27.715c6.785-4.83,10.12-12.535,10.12-23.23,0-19.78-11.385-29.555-34.845-29.555h-47.495V0h30.7V-21.505h13.225ZM1205.43-57.5h13.915c5.06,0,7.7,1.15,7.7,6.555,0,5.29-2.645,6.44-7.7,6.44H1205.43Z" transform="translate(-2.875 82.685)" fill="#292929"/>
</svg>
